<svg width="94" height="184" viewBox="0 0 94 184" fill="none" xmlns="http://www.w3.org/2000/svg">
<g id="freepik--Character--inject-15">
<path id="Vector" d="M69.045 40.1123L73.3394 37.3315L68.5029 34.3606C68.5029 34.3606 64.8209 37.071 66.2993 38.9085L69.045 40.1123Z" fill="#B55B52"/>
<path id="Vector_2" d="M75.542 32.7626L70.5154 31.6221L68.502 34.3607L73.3385 37.3316L75.542 32.7626Z" fill="#B55B52"/>
<path id="Vector_3" d="M51.3951 31.087C54.1126 35.1984 56.8371 40.1968 60.5472 43.4001C60.6176 43.4564 60.5894 43.4001 60.3149 43.4001C60.1741 43.4353 60.2445 43.5057 60.5331 43.4001C61.378 42.9185 62.1215 42.2778 62.7226 41.5133C64.0994 39.8446 65.3245 38.0564 66.3834 36.1699C66.4327 36.0925 66.3834 36.1699 66.3834 36.2544C66.3656 36.3828 66.3656 36.5131 66.3834 36.6416C66.4468 36.705 66.2215 36.5219 66.658 37.4864C66.8638 37.7941 67.1563 38.034 67.4983 38.1756C67.8404 38.3171 68.2168 38.3542 68.5799 38.2819C68.8124 38.2318 69.0319 38.134 69.2246 37.9946C69.4173 37.8552 69.5789 37.6774 69.6993 37.4723C69.5892 37.6022 69.4903 37.7412 69.4036 37.8877L66.2497 36.543C66.326 36.0952 66.5096 35.6725 66.7847 35.311C67.0395 35.0244 67.3762 34.8229 67.7492 34.7337C68.1151 34.6621 68.4939 34.7 68.8383 34.8428C69.1827 34.9856 69.4773 35.2268 69.6852 35.5363C70.1217 36.5078 69.9035 36.3248 69.9668 36.3952C69.9747 36.6199 69.9534 36.8447 69.9035 37.064C68.7982 41.7597 65.9117 49.4968 59.9277 49.539C55.7036 49.1518 52.5004 44.5124 50.1279 41.5837C48.4441 39.329 46.8927 36.9783 45.4814 34.5437L51.3599 31.094L51.3951 31.087Z" fill="#B55B52"/>
<path id="Vector_4" d="M49.2261 27.9964C52.0421 28.9257 57.7516 41.9005 57.7516 41.9005L48.0504 46.5047C48.0504 46.5047 46.0792 36.3107 46.4664 33.023C46.7092 31.0561 47.6969 29.2571 49.2261 27.9964Z" fill="#50A9B0"/>
<path id="Vector_5" opacity="0.7" d="M49.2261 27.9964C52.0421 28.9257 57.7516 41.9005 57.7516 41.9005L48.0504 46.5047C48.0504 46.5047 46.0792 36.3107 46.4664 33.023C46.7092 31.0561 47.6969 29.2571 49.2261 27.9964Z" fill="white"/>
<path id="Vector_6" d="M60.6313 178.422L55.6892 179.823L54.5135 172.128L53.8799 168.016L58.822 166.615L59.6668 172.128L60.6313 178.422Z" fill="#B55B52"/>
<path id="Vector_7" d="M32.2176 178.823L27.1206 179.499L27.0713 172.128L27.0361 167.545L32.1402 166.883L32.1754 172.128L32.2176 178.823Z" fill="#B55B52"/>
<path id="Vector_8" opacity="0.2" d="M32.1402 166.883L32.1754 172.128H27.0713L27.0361 167.545L32.1402 166.883Z" fill="black"/>
<path id="Vector_9" opacity="0.2" d="M59.6668 172.128H54.5135L53.8799 168.016L58.822 166.615L59.6668 172.128Z" fill="black"/>
<path id="Vector_10" d="M60.5476 177.647L54.9156 177.499C54.8132 177.496 54.7129 177.528 54.631 177.589C54.5491 177.651 54.4905 177.738 54.465 177.837L53.2893 182.357C53.2523 182.466 53.2426 182.582 53.261 182.696C53.2794 182.809 53.3253 182.917 53.3948 183.008C53.4643 183.1 53.5551 183.173 53.6595 183.222C53.7638 183.27 53.8784 183.292 53.9933 183.286C56.0209 183.286 58.9214 183.286 61.491 183.336C64.4689 183.42 66.3627 183.272 69.8546 183.336C71.9666 183.392 72.6214 181.287 71.7484 181.069C67.7567 180.083 65.1518 180.28 61.7515 178.056C61.3953 177.812 60.9788 177.67 60.5476 177.647Z" fill="#263238"/>
<path id="Vector_11" d="M60.9763 178.274C60.972 178.249 60.9758 178.223 60.9872 178.2C60.9986 178.177 61.017 178.159 61.0397 178.147C61.2791 178.035 63.384 177.042 63.9965 177.408C64.0546 177.441 64.1027 177.49 64.1361 177.548C64.1695 177.606 64.1869 177.672 64.1866 177.739C64.1933 177.849 64.1738 177.96 64.1297 178.061C64.0857 178.163 64.0184 178.253 63.9332 178.323C63.3559 178.802 61.8915 178.563 61.0679 178.372C61.044 178.368 61.0223 178.356 61.0058 178.338C60.9893 178.321 60.979 178.298 60.9763 178.274ZM61.4762 178.218C62.6096 178.436 63.4544 178.408 63.7783 178.133C63.8356 178.089 63.8805 178.031 63.9089 177.964C63.9373 177.898 63.948 177.825 63.9402 177.753C63.9424 177.726 63.9369 177.699 63.9245 177.676C63.912 177.652 63.893 177.632 63.8698 177.619H63.8276C63.4404 177.457 62.3069 177.851 61.4762 178.218Z" fill="#50A9B0"/>
<path id="Vector_12" d="M61.0186 178.351C61.0015 178.34 60.9882 178.324 60.9807 178.305C60.9731 178.286 60.9716 178.266 60.9763 178.246C61.0502 177.52 61.3535 176.837 61.8423 176.296C61.939 176.215 62.0519 176.156 62.1735 176.124C62.295 176.091 62.4222 176.085 62.5463 176.106C62.8771 176.148 62.9687 176.317 62.9898 176.458C63.0602 177.035 61.793 178.112 61.1594 178.372C61.1317 178.38 61.1026 178.38 61.0749 178.372L61.0186 178.351ZM62.4899 176.345C62.4014 176.333 62.3114 176.339 62.2255 176.364C62.1395 176.388 62.0594 176.429 61.9901 176.486C61.6 176.919 61.3541 177.463 61.2861 178.042C61.9338 177.683 62.7997 176.838 62.7504 176.486C62.7504 176.486 62.7504 176.408 62.6448 176.373L62.4899 176.345Z" fill="#50A9B0"/>
<path id="Vector_13" d="M32.0139 177.647L26.3818 177.499C26.2795 177.496 26.1791 177.528 26.0972 177.589C26.0153 177.651 25.9568 177.738 25.9312 177.837L24.7485 182.357C24.7196 182.466 24.7158 182.58 24.7375 182.69C24.7592 182.8 24.8057 182.904 24.8736 182.994C24.9415 183.083 25.0289 183.156 25.1292 183.207C25.2296 183.258 25.3401 183.285 25.4525 183.286C27.473 183.286 30.3806 183.286 32.9502 183.336C35.9281 183.42 37.8149 183.272 41.3068 183.336C43.4188 183.392 44.0806 181.287 43.2005 181.069C39.2159 180.083 36.604 180.28 33.2107 178.056C32.856 177.814 32.4424 177.673 32.0139 177.647Z" fill="#263238"/>
<path id="Vector_14" d="M32.387 178.274C32.3832 178.248 32.3881 178.222 32.4008 178.199C32.4135 178.176 32.4334 178.158 32.4574 178.147C32.6967 178.035 34.7947 177.042 35.4072 177.408C35.4652 177.441 35.5133 177.49 35.5467 177.548C35.5801 177.606 35.5975 177.672 35.5972 177.739C35.6047 177.849 35.5864 177.959 35.5436 178.06C35.5008 178.162 35.4348 178.252 35.3508 178.323C34.7665 178.802 33.3022 178.563 32.4785 178.372C32.4555 178.366 32.4348 178.354 32.4186 178.336C32.4024 178.319 32.3914 178.297 32.387 178.274ZM32.8939 178.218C34.0203 178.436 34.8721 178.408 35.196 178.133C35.2523 178.088 35.2965 178.03 35.3248 177.963C35.353 177.897 35.3644 177.825 35.3579 177.753C35.3578 177.726 35.3506 177.699 35.337 177.676C35.3234 177.652 35.3039 177.633 35.2804 177.619H35.2382C34.8862 177.457 33.7527 177.851 32.922 178.218H32.8939Z" fill="#50A9B0"/>
<path id="Vector_15" d="M32.4645 178.351C32.4468 178.34 32.4327 178.325 32.424 178.306C32.4152 178.287 32.4122 178.266 32.4152 178.246C32.4925 177.52 32.7981 176.837 33.2882 176.295C33.3846 176.215 33.4976 176.156 33.6192 176.123C33.7408 176.09 33.8681 176.084 33.9922 176.105C34.3231 176.148 34.4146 176.317 34.4287 176.457C34.5061 177.035 33.2319 178.112 32.6053 178.372C32.5752 178.379 32.5439 178.379 32.5138 178.372L32.4645 178.351ZM33.9359 176.345C33.8473 176.332 33.7572 176.339 33.6712 176.363C33.5852 176.387 33.5051 176.429 33.436 176.486C33.049 176.921 32.8035 177.463 32.732 178.041C33.3797 177.682 34.2456 176.838 34.2034 176.486C34.1973 176.458 34.1835 176.433 34.1635 176.413C34.1436 176.393 34.1183 176.379 34.0908 176.373C34.0413 176.354 33.9888 176.345 33.9359 176.345Z" fill="#50A9B0"/>
<path id="Vector_16" d="M21.7074 66.8154C19.004 78.516 23.6363 170.579 23.6363 170.579H32.5913L36.4211 93.8423L50.5013 170.579L60.0758 169.875C53.8171 110.443 48.2907 74.9608 48.2907 74.9608V70.4763L21.7074 66.8154Z" fill="#263238"/>
<path id="Vector_17" opacity="0.2" d="M60.089 169.861L50.5145 170.565L39.4264 110.161L36.4273 93.8352L32.5975 170.572H23.6425C23.6425 170.572 19.0102 78.4949 21.7065 66.8154L48.318 70.4833V74.9678C48.318 74.9678 53.8304 110.464 60.089 169.861Z" fill="white"/>
<path id="Vector_18" d="M21.123 27.2431C22.0608 32.7674 22.5856 38.3539 22.693 43.9562C22.7845 47.8634 22.693 51.5806 22.5592 54.9458C22.2072 62.8377 21.4469 68.8077 21.4821 70.8563L48.347 71.3351C54.7535 43.2452 49.2481 27.9964 49.2481 27.9964C47.1654 27.4181 45.0495 26.9667 42.9121 26.6447C42.4427 26.5837 41.9734 26.5273 41.5041 26.4757C37.7049 26.1868 33.8923 26.1163 30.0851 26.2645C29.3811 26.2645 28.6278 26.3279 27.9167 26.3842C24.3263 26.6869 21.123 27.2431 21.123 27.2431Z" fill="#50A9B0"/>
<path id="Vector_19" d="M42.3763 27.3909C42.3763 27.3909 40.7782 29.7071 39.4969 29.8691C37.6806 30.1155 31.0488 26.0533 31.0488 26.0533C32.5836 24.9199 33.3369 22.4488 33.6677 19.837C33.9044 17.7169 33.9492 15.5797 33.8015 13.4516L40.0038 20.196C39.1872 22.308 38.7014 24.5608 40.3065 26.1449C40.8965 26.7072 41.6032 27.1327 42.3763 27.3909Z" fill="#B55B52"/>
<path id="Vector_20" opacity="0.2" d="M40.2931 26.1238C37.561 24.633 35.2709 22.4473 33.6543 19.7877C33.891 17.6676 33.9357 15.5305 33.7881 13.4023L39.9904 20.1467C39.1737 22.2799 38.7231 24.5749 40.2931 26.1238Z" fill="black"/>
<path id="Vector_21" d="M47.1708 7.36907C47.6988 9.31917 47.1708 13.2757 44.5519 11.8677C41.933 10.4597 46.2908 4.00391 47.1708 7.36907Z" fill="#263238"/>
<path id="Vector_22" d="M33.1752 9.37545C32.6613 14.3035 32.1121 17.1899 34.1749 20.0975C37.2866 24.4623 43.7283 23.1599 45.7065 18.4501C47.4947 14.2261 48.0298 6.83399 43.5452 4.1306C42.5502 3.53261 41.4197 3.19675 40.2596 3.15446C39.0994 3.11217 37.9475 3.36482 36.9116 3.88877C35.8756 4.41272 34.9895 5.19086 34.336 6.15041C33.6826 7.10996 33.2832 8.21957 33.1752 9.37545Z" fill="#B55B52"/>
<path id="Vector_23" d="M36.7662 6.82679L37.0126 1.28626C37.0126 1.28626 31.1271 0.582258 31.2609 3.62357C27.9239 5.10199 29.2474 10.2483 33.5278 12.9305C36.02 11.1142 35.9425 6.46072 35.9425 6.46072C36.196 6.58744 36.4776 6.70711 36.7662 6.82679Z" fill="#263238"/>
<path id="Vector_24" d="M30.6064 13.1418C30.6966 13.7533 30.9073 14.3407 31.2264 14.87C31.5454 15.3994 31.9664 15.8601 32.465 16.2254C33.8026 17.1969 35.0627 16.1268 35.1754 14.5639C35.281 13.1559 34.7107 10.9524 33.1338 10.6004C32.7859 10.5319 32.4265 10.5504 32.0875 10.6541C31.7484 10.7578 31.4402 10.9436 31.1902 11.195C30.9402 11.4464 30.7561 11.7556 30.6543 12.0953C30.5524 12.4349 30.536 12.7943 30.6064 13.1418Z" fill="#B55B52"/>
<path id="Vector_25" d="M40.4061 11.9028C40.3357 12.3041 40.4977 12.6561 40.7582 12.6984C41.0186 12.7406 41.2862 12.452 41.3495 12.0507C41.4129 11.6494 41.258 11.2974 40.9975 11.2551C40.737 11.2129 40.4695 11.5015 40.4061 11.9028Z" fill="#263238"/>
<path id="Vector_26" d="M44.9249 12.6068C44.8615 13.0081 45.0234 13.3672 45.2839 13.4024C45.5444 13.4376 45.8119 13.156 45.8753 12.7547C45.9386 12.3534 45.7838 12.0014 45.5233 11.9592C45.2628 11.9169 44.9953 12.2126 44.9249 12.6068Z" fill="#263238"/>
<path id="Vector_27" d="M43.4534 12.6069C43.7559 13.8626 44.2296 15.0707 44.8614 16.1973C44.5534 16.3343 44.22 16.4051 43.8829 16.4051C43.5457 16.4051 43.2123 16.3343 42.9043 16.1973L43.4534 12.6069Z" fill="#A02724"/>
<path id="Vector_28" d="M40.5037 17.3941C40.6717 17.4471 40.8436 17.4871 41.0177 17.5138C41.0484 17.5179 41.0795 17.5099 41.1044 17.4915C41.1294 17.4731 41.1462 17.4458 41.1514 17.4152C41.1545 17.3995 41.1543 17.3833 41.151 17.3676C41.1476 17.3519 41.1412 17.3371 41.132 17.3239C41.1228 17.3108 41.111 17.2997 41.0974 17.2911C41.0839 17.2826 41.0687 17.2769 41.0529 17.2744C40.5559 17.2079 40.0816 17.0254 39.6682 16.7416C39.2549 16.4579 38.9141 16.0809 38.6733 15.6411C38.668 15.6263 38.6596 15.6127 38.6487 15.6013C38.6378 15.5899 38.6246 15.581 38.61 15.575C38.5954 15.569 38.5797 15.5662 38.5639 15.5666C38.5482 15.5671 38.5327 15.5709 38.5185 15.5777C38.4897 15.5902 38.467 15.6133 38.4552 15.6423C38.4434 15.6712 38.4433 15.7037 38.4551 15.7326C38.6647 16.135 38.9547 16.49 39.3071 16.7758C39.6595 17.0616 40.0668 17.272 40.5037 17.3941Z" fill="#263238"/>
<path id="Vector_29" d="M39.2512 10.2273C39.2913 10.2406 39.3343 10.2424 39.3754 10.2325C39.4165 10.2225 39.454 10.2012 39.4835 10.1709C39.6959 9.95894 39.9546 9.79904 40.2392 9.70377C40.5238 9.6085 40.8266 9.58044 41.1238 9.62181C41.1539 9.62874 41.185 9.62969 41.2154 9.6246C41.2458 9.61951 41.2749 9.60848 41.3011 9.59214C41.3272 9.57579 41.3499 9.55445 41.3678 9.52935C41.3857 9.50424 41.3985 9.47585 41.4054 9.4458C41.4124 9.41576 41.4133 9.38464 41.4082 9.35423C41.4031 9.32381 41.3921 9.29471 41.3758 9.26856C41.3594 9.24241 41.3381 9.21973 41.313 9.20183C41.2879 9.18392 41.2595 9.17114 41.2294 9.16421C40.8561 9.10077 40.4729 9.12845 40.1126 9.24489C39.7522 9.36134 39.4253 9.56309 39.1597 9.83301C39.1149 9.87788 39.0898 9.93864 39.0898 10.002C39.0898 10.0653 39.1149 10.1261 39.1597 10.1709C39.1859 10.1959 39.2171 10.215 39.2512 10.2273Z" fill="#263238"/>
<path id="Vector_30" d="M47.1711 11.3608C47.2146 11.3748 47.2614 11.3748 47.3049 11.3608C47.3654 11.3428 47.4164 11.3016 47.4467 11.2463C47.4771 11.1909 47.4843 11.1258 47.4668 11.0651C47.3678 10.7018 47.1822 10.368 46.926 10.0921C46.6697 9.81625 46.3504 9.60659 45.9955 9.48107C45.9348 9.46544 45.8705 9.47348 45.8156 9.50355C45.7607 9.53363 45.7193 9.58348 45.6998 9.64299C45.6823 9.70367 45.6895 9.7688 45.7198 9.82418C45.7502 9.87956 45.8012 9.92072 45.8617 9.93868C46.1432 10.0378 46.3956 10.2057 46.596 10.4269C46.7963 10.6482 46.9384 10.9159 47.0092 11.2059C47.0215 11.243 47.0427 11.2764 47.0709 11.3034C47.0992 11.3304 47.1336 11.3501 47.1711 11.3608Z" fill="#263238"/>
<path id="Vector_31" d="M31.261 3.62369C31.261 3.62369 28.2197 0.603496 38.5404 0.878059C48.8612 1.15262 50.5789 6.93957 45.848 8.28422L45.6368 7.34085C44.8243 7.75977 43.9316 8.00034 43.0186 8.04647C42.1056 8.09261 41.1933 7.94324 40.3427 7.60837L41.0889 7.14373C41.0889 7.14373 34.0418 7.86182 31.261 3.62369Z" fill="#263238"/>
<path id="Vector_32" d="M39.4976 29.8479C39.4976 29.8479 38.1811 31.3686 36.6816 32.8681C34.4921 31.7628 29.3669 28.7989 29.6415 26.0604C29.9442 25.2648 32.0281 24.7579 32.0281 24.7579C32.0281 24.7579 34.2386 27.7077 39.4976 29.8479Z" fill="#50A9B0"/>
<path id="Vector_33" d="M39.4971 29.8481C40.5741 30.7163 41.5223 31.7332 42.3131 32.8683C43.9253 31.8264 43.1157 26.7294 42.5243 26.1662C41.6717 25.7004 40.715 25.4582 39.7435 25.4621C40.0625 26.1581 40.2068 26.9213 40.1639 27.6857C40.1209 28.45 39.892 29.1923 39.4971 29.8481Z" fill="#50A9B0"/>
<g id="Group" opacity="0.5">
<path id="Vector_34" d="M39.4976 29.8479C39.4976 29.8479 38.1811 31.3686 36.6816 32.8681C34.4921 31.7628 29.3669 28.7989 29.6415 26.0604C29.9442 25.2648 32.0281 24.7579 32.0281 24.7579C32.0281 24.7579 34.2386 27.7077 39.4976 29.8479Z" fill="white"/>
<path id="Vector_35" d="M39.498 29.848C40.5751 30.7162 41.5233 31.7331 42.3141 32.8682C43.9263 31.8263 43.1166 26.7292 42.5253 26.166C41.6727 25.7003 40.716 25.4581 39.7444 25.462C40.0635 26.1579 40.2078 26.9212 40.1648 27.6855C40.1219 28.4499 39.893 29.1922 39.498 29.848Z" fill="white"/>
</g>
<path id="Vector_36" opacity="0.2" d="M39.4268 110.161L36.4277 93.8352L37.005 85.197C37.005 85.197 41.1094 100.178 39.4268 110.161Z" fill="black"/>
<path id="Vector_37" d="M23.9393 34.6986C21.3345 39.0424 17.3005 45.2587 15.0899 49.6729C13.9142 52.1721 13.5482 54.8473 12.9075 57.5437C12.295 60.4231 11.6825 63.3588 11.0067 66.2593L7.64154 65.9636C7.52186 62.9152 7.55002 59.895 7.73306 56.8467C7.96538 53.6716 8.13434 50.2431 9.33116 47.2299C11.7107 41.436 14.8435 36.2545 18.2016 31.0378L23.9393 34.7127V34.6986Z" fill="#B55B52"/>
<path id="Vector_38" d="M21.1226 27.2431C17.3421 28.2217 10.5625 41.809 10.5625 41.809L18.5952 47.0116L25.8395 39.9716C26.2553 37.423 26.099 34.8138 25.3819 32.3331C24.2062 28.095 21.1226 27.2431 21.1226 27.2431Z" fill="#50A9B0"/>
<path id="Vector_39" opacity="0.7" d="M21.1226 27.2431C17.3421 28.2217 10.5625 41.809 10.5625 41.809L18.5952 47.0116L25.8395 39.9716C26.2553 37.423 26.099 34.8138 25.3819 32.3331C24.2062 28.095 21.1226 27.2431 21.1226 27.2431Z" fill="white"/>
<path id="Vector_40" d="M23.9727 69.1271L79.7785 9.94884C80.0791 9.63002 80.4396 9.37354 80.8394 9.19404C81.2392 9.01455 81.6704 8.91555 82.1084 8.90269C82.5464 8.88985 82.9827 8.9634 83.3923 9.11916C83.8019 9.27491 84.1768 9.50983 84.4957 9.81048L85.8427 11.0808C86.4866 11.688 86.8629 12.5261 86.8889 13.4107C86.9148 14.2954 86.5883 15.1541 85.9811 15.798L30.1753 74.9763L23.9727 69.1271Z" fill="#263238"/>
<path id="Vector_41" opacity="0.6" d="M23.9727 69.1271L79.7785 9.94884C80.0791 9.63002 80.4396 9.37354 80.8394 9.19404C81.2392 9.01455 81.6704 8.91555 82.1084 8.90269C82.5464 8.88985 82.9827 8.9634 83.3923 9.11916C83.8019 9.27491 84.1768 9.50983 84.4957 9.81048L85.8427 11.0808C86.4866 11.688 86.8629 12.5261 86.8889 13.4107C86.9148 14.2954 86.5883 15.1541 85.9811 15.798L30.1753 74.9763L23.9727 69.1271Z" fill="white"/>
<path id="Vector_42" opacity="0.2" d="M84.9059 10.2062L85.8422 11.0862C86.1609 11.3861 86.4174 11.7458 86.597 12.1449C86.7766 12.5439 86.8758 12.9745 86.8888 13.4119C86.9019 13.8493 86.8286 14.285 86.6732 14.6941C86.5178 15.1032 86.2833 15.4776 85.983 15.796L30.1764 74.9819L29.2471 74.1019L85.0537 14.916C85.3535 14.5972 85.5875 14.2224 85.7424 13.813C85.8972 13.4037 85.9698 12.9679 85.9561 12.5304C85.9424 12.093 85.8425 11.6626 85.6623 11.2638C85.4821 10.865 85.2251 10.5056 84.9059 10.2062Z" fill="black"/>
<path id="Vector_43" d="M67.1016 33.1216L77.4434 42.8792L78.7881 41.4501L77.4505 40.1899L79.5766 37.93L78.7951 37.1908L81.9913 33.8045L82.7728 34.5437L84.7722 32.4247L86.1098 33.6919L87.4967 32.2135L86.7152 31.4743L88.7146 29.3482L87.1447 27.8697L88.4541 26.4829L90.8125 28.7005L93.2062 26.166L82.8643 16.4085L67.1016 33.1216Z" fill="#263238"/>
<path id="Vector_44" opacity="0.6" d="M67.1016 33.1216L77.4434 42.8792L78.7881 41.4501L77.4505 40.1899L79.5766 37.93L78.7951 37.1908L81.9913 33.8045L82.7728 34.5437L84.7722 32.4247L86.1098 33.6919L87.4967 32.2135L86.7152 31.4743L88.7146 29.3482L87.1447 27.8697L88.4541 26.4829L90.8125 28.7005L93.2062 26.166L82.8643 16.4085L67.1016 33.1216Z" fill="white"/>
<g id="Group_2" opacity="0.2">
<path id="Vector_45" opacity="0.6" d="M77.8554 40.5795L76.5127 42.0034L77.4449 42.8825L78.7876 41.4586L77.8554 40.5795Z" fill="black"/>
<path id="Vector_46" opacity="0.6" d="M82.7723 34.5438L81.9909 33.7975L78.7947 37.1908L79.5761 37.93L77.45 40.1899L76.5137 39.3099L78.6468 37.05L77.8583 36.3108L81.0545 32.9175L81.843 33.6637L83.8354 31.5447L84.7717 32.4247L82.7723 34.5438Z" fill="black"/>
<path id="Vector_47" opacity="0.6" d="M85.7781 30.5872L87.7845 28.4681L88.7208 29.3481L86.7144 31.4743L87.5029 32.2135L86.109 33.6919L85.1797 32.8119L86.5666 31.3335L85.7781 30.5872Z" fill="black"/>
<path id="Vector_48" opacity="0.6" d="M87.514 25.5998L86.2051 26.9879L87.1373 27.8669L88.4462 26.4789L87.514 25.5998Z" fill="black"/>
<path id="Vector_49" opacity="0.6" d="M92.2717 25.2908L89.876 27.8313L90.8082 28.7104L93.2038 26.1699L92.2717 25.2908Z" fill="black"/>
</g>
<path id="Vector_50" d="M78.2927 10.4344L61.1848 28.5761C60.9021 28.8759 60.9159 29.3482 61.2158 29.631L67.4235 35.485C67.7234 35.7677 68.1956 35.7539 68.4784 35.454L85.5863 17.3123C85.869 17.0124 85.8552 16.5402 85.5553 16.2574L79.3476 10.4034C79.0477 10.1207 78.5754 10.1345 78.2927 10.4344Z" fill="#263238"/>
<path id="Vector_51" d="M30.5001 94.1098C29.2017 95.487 27.6448 96.5951 25.9181 97.3705C24.1915 98.146 22.329 98.5737 20.4371 98.6293C18.5451 98.6848 16.6607 98.3672 14.8915 97.6944C13.1224 97.0216 11.5031 96.0069 10.1261 94.7082L5.45151 90.3011C4.07424 89.0027 2.96623 87.4458 2.19076 85.7191C1.41529 83.9925 0.987563 82.13 0.931993 80.2381C0.876424 78.3461 1.19411 76.4617 1.8669 74.6925C2.53969 72.9234 3.55441 71.3041 4.85311 69.9271C6.15263 68.5444 7.71232 67.4318 9.44273 66.6531C11.1731 65.8744 13.0402 65.445 14.937 65.3894C16.8337 65.3338 18.7228 65.6531 20.4958 66.3291C22.2689 67.0051 23.891 68.0245 25.2693 69.3287L29.9369 73.7358C31.3118 75.0365 32.417 76.5953 33.1894 78.3232C33.9618 80.0511 34.3862 81.9142 34.4385 83.8061C34.4908 85.6981 34.1699 87.5818 33.4942 89.3497C32.8184 91.1176 31.801 92.7351 30.5001 94.1098Z" fill="#263238"/>
<path id="Vector_52" d="M25.1285 89.0409C24.4825 89.7272 23.7075 90.2795 22.8479 90.6662C21.9883 91.0528 21.061 91.2663 20.1189 91.2945C19.1767 91.3226 18.2383 91.1647 17.3572 90.83C16.4761 90.4953 15.6696 89.9902 14.9838 89.3436L10.5626 85.1196C9.87675 84.4731 9.32504 83.6977 8.93898 82.8379C8.55292 81.9781 8.34008 81.0506 8.31262 80.1085C8.28516 79.1663 8.44362 78.228 8.77894 77.3472C9.11427 76.4663 9.61989 75.6602 10.2669 74.9748C10.9123 74.2884 11.6869 73.7361 12.5462 73.3496C13.4054 72.9631 14.3326 72.75 15.2744 72.7225C16.2162 72.6951 17.1542 72.8537 18.0345 73.1895C18.9149 73.5253 19.7203 74.0315 20.4046 74.6792L24.868 78.9032C26.2462 80.2134 27.0478 82.0172 27.0966 83.9181C27.1454 85.8191 26.4376 87.6616 25.1285 89.0409Z" fill="white"/>
<path id="Vector_53" opacity="0.5" d="M78.2927 10.4344L61.1848 28.5761C60.9021 28.8759 60.9159 29.3482 61.2158 29.631L67.4235 35.485C67.7234 35.7677 68.1956 35.7539 68.4784 35.454L85.5863 17.3123C85.869 17.0124 85.8552 16.5402 85.5553 16.2574L79.3476 10.4034C79.0477 10.1207 78.5754 10.1345 78.2927 10.4344Z" fill="white"/>
<g id="Group_3" opacity="0.5">
<path id="Vector_54" d="M30.5001 94.1098C29.2017 95.487 27.6448 96.5951 25.9181 97.3705C24.1915 98.146 22.329 98.5737 20.4371 98.6293C18.5451 98.6848 16.6607 98.3672 14.8915 97.6944C13.1224 97.0216 11.5031 96.0069 10.1261 94.7082L5.45151 90.3011C4.07424 89.0027 2.96623 87.4458 2.19076 85.7191C1.41529 83.9925 0.987563 82.13 0.931993 80.2381C0.876424 78.3461 1.19411 76.4617 1.8669 74.6925C2.53969 72.9234 3.55441 71.3041 4.85311 69.9271C6.15263 68.5444 7.71232 67.4318 9.44273 66.6531C11.1731 65.8744 13.0402 65.445 14.937 65.3894C16.8337 65.3338 18.7228 65.6531 20.4958 66.3291C22.2689 67.0051 23.891 68.0245 25.2693 69.3287L29.9369 73.7358C31.3118 75.0365 32.417 76.5953 33.1894 78.3232C33.9618 80.0511 34.3862 81.9142 34.4385 83.8061C34.4908 85.6981 34.1699 87.5818 33.4942 89.3497C32.8184 91.1176 31.801 92.7351 30.5001 94.1098Z" fill="white"/>
<path id="Vector_55" d="M25.1285 89.041C24.4825 89.7273 23.7075 90.2795 22.8479 90.6662C21.9883 91.0529 21.061 91.2664 20.1189 91.2945C19.1767 91.3226 18.2383 91.1648 17.3572 90.8301C16.4761 90.4953 15.6696 89.9902 14.9838 89.3437L10.5626 85.1196C9.87675 84.4731 9.32504 83.6978 8.93898 82.838C8.55292 81.9781 8.34008 81.0506 8.31262 80.1085C8.28516 79.1664 8.44362 78.2281 8.77894 77.3473C9.11427 76.4664 9.61989 75.6602 10.2669 74.9749C10.9123 74.2884 11.6869 73.7361 12.5462 73.3496C13.4054 72.9631 14.3326 72.7501 15.2744 72.7226C16.2162 72.6951 17.1542 72.8538 18.0345 73.1896C18.9149 73.5253 19.7203 74.0316 20.4046 74.6792L24.868 78.9033C26.2462 80.2135 27.0478 82.0172 27.0966 83.9182C27.1454 85.8191 26.4376 87.6617 25.1285 89.041Z" fill="white"/>
</g>
<path id="Vector_56" opacity="0.2" d="M83.6876 14.4935L85.5603 16.2535C85.6307 16.323 85.6867 16.4057 85.7249 16.497C85.763 16.5882 85.7827 16.6862 85.7827 16.7851C85.7827 16.884 85.763 16.9819 85.7249 17.0732C85.6867 17.1644 85.6307 17.2472 85.5603 17.3166L68.4529 35.4518C68.3841 35.5221 68.3019 35.5779 68.2112 35.616C68.1206 35.6541 68.0232 35.6737 67.9249 35.6737C67.8265 35.6737 67.7292 35.6541 67.6385 35.616C67.5478 35.5779 67.4657 35.5221 67.3969 35.4518L65.5312 33.6918C65.6709 33.8298 65.8594 33.9072 66.0557 33.9072C66.2521 33.9072 66.4405 33.8298 66.5802 33.6918L83.6876 15.5495C83.7578 15.4807 83.8137 15.3986 83.8518 15.3079C83.8898 15.2172 83.9095 15.1199 83.9095 15.0215C83.9095 14.9232 83.8898 14.8258 83.8518 14.7352C83.8137 14.6445 83.7578 14.5624 83.6876 14.4935Z" fill="black"/>
<g id="Group_4" opacity="0.2">
<path id="Vector_57" d="M19.0112 73.3768L20.4193 74.6933C19.0203 73.484 17.2087 72.8611 15.3619 72.9541C13.5151 73.0472 11.7753 73.8492 10.505 75.193C9.23475 76.5368 8.53181 78.3188 8.54263 80.1679C8.55346 82.0171 9.27721 83.7908 10.5631 85.1196L9.15513 83.7961C7.77065 82.4891 6.96206 80.6856 6.90727 78.7824C6.85248 76.8793 7.55597 75.0323 8.86297 73.6478C10.17 72.2633 11.9734 71.4547 13.8766 71.3999C15.7798 71.3452 17.6267 72.0486 19.0112 73.3556V73.3768Z" fill="black"/>
<path id="Vector_58" d="M28.5082 72.4476L29.9162 73.7711C32.6094 76.415 34.1586 80.0096 34.2311 83.783C34.3036 87.5564 32.8937 91.2078 30.304 93.9532C27.7143 96.6987 24.1514 98.3192 20.3802 98.467C16.6089 98.6147 12.9301 97.2779 10.1336 94.7435L8.72559 93.427C11.5128 96.021 15.213 97.4072 19.0186 97.2831C22.8241 97.1589 26.4261 95.5344 29.0383 92.7642C31.6505 89.994 33.0608 86.3029 32.9615 82.4966C32.8622 78.6903 31.2613 75.0778 28.5082 72.4476Z" fill="black"/>
</g>
<g id="Group_5" opacity="0.2">
<path id="Vector_59" d="M19.0112 73.3768L20.4193 74.6933C19.0203 73.484 17.2087 72.8611 15.3619 72.9541C13.5151 73.0472 11.7753 73.8492 10.505 75.193C9.23475 76.5368 8.53181 78.3188 8.54263 80.1679C8.55346 82.0171 9.27721 83.7908 10.5631 85.1196L9.15513 83.7961C7.77065 82.4891 6.96206 80.6856 6.90727 78.7824C6.85248 76.8793 7.55597 75.0323 8.86297 73.6478C10.17 72.2633 11.9734 71.4547 13.8766 71.3999C15.7798 71.3452 17.6267 72.0486 19.0112 73.3556V73.3768Z" fill="black"/>
<path id="Vector_60" d="M19.0112 73.3768L20.4193 74.6933C19.0203 73.484 17.2087 72.8611 15.3619 72.9541C13.5151 73.0472 11.7753 73.8492 10.505 75.193C9.23475 76.5368 8.53181 78.3188 8.54263 80.1679C8.55346 82.0171 9.27721 83.7908 10.5631 85.1196L9.15513 83.7961C7.77065 82.4891 6.96206 80.6856 6.90727 78.7824C6.85248 76.8793 7.55597 75.0323 8.86297 73.6478C10.17 72.2633 11.9734 71.4547 13.8766 71.3999C15.7798 71.3452 17.6267 72.0486 19.0112 73.3556V73.3768Z" fill="black"/>
</g>
<path id="Vector_61" d="M8.2957 74.0034L13.4702 72.708L12.8929 68.9275L6.58496 70.2017L8.2957 74.0034Z" fill="#B55B52"/>
<path id="Vector_62" d="M7.78881 65.2525L6.58496 70.1806L12.921 68.9063C12.921 68.9063 13.0055 64.4781 10.6541 64.1895L7.78881 65.2525Z" fill="#B55B52"/>
</g>
</svg>
