<svg width="137" height="166" viewBox="0 0 137 166" fill="none" xmlns="http://www.w3.org/2000/svg">
<g id="freepik--Tab--inject-15">
<path id="Vector" d="M131.403 0.334106H5.44924C2.60313 0.334106 0.295898 2.64134 0.295898 5.48745V160.137C0.295898 162.983 2.60313 165.29 5.44924 165.29H131.403C134.249 165.29 136.557 162.983 136.557 160.137V5.48745C136.557 2.64134 134.249 0.334106 131.403 0.334106Z" fill="#50A9B0"/>
<path id="Vector_2" opacity="0.6" d="M131.403 0.334106H5.44924C2.60313 0.334106 0.295898 2.64134 0.295898 5.48745V160.137C0.295898 162.983 2.60313 165.29 5.44924 165.29H131.403C134.249 165.29 136.557 162.983 136.557 160.137V5.48745C136.557 2.64134 134.249 0.334106 131.403 0.334106Z" fill="white"/>
<path id="Vector_3" d="M114.479 101.958H22.3662V117.727H114.479V101.958Z" fill="white"/>
<g id="Group" opacity="0.4">
<path id="Vector_4" d="M27.013 109.533C27.0089 109.224 27.0678 108.917 27.1861 108.632C27.3043 108.347 27.4795 108.088 27.7008 107.873C27.9221 107.658 28.1851 107.49 28.4735 107.379C28.7619 107.269 29.0699 107.218 29.3785 107.231C29.6851 107.22 29.9907 107.273 30.2756 107.387C30.5605 107.501 30.8184 107.673 31.0329 107.892L30.7302 108.195C30.556 108.019 30.3473 107.88 30.1171 107.788C29.887 107.696 29.6403 107.652 29.3926 107.66C28.8959 107.66 28.4196 107.857 28.0684 108.208C27.7172 108.56 27.5199 109.036 27.5199 109.533C27.5199 110.029 27.7172 110.506 28.0684 110.857C28.4196 111.208 28.8959 111.405 29.3926 111.405C29.641 111.413 29.8884 111.369 30.1187 111.276C30.3491 111.182 30.5574 111.042 30.7302 110.863L31.0329 111.166C30.8176 111.386 30.5585 111.559 30.2723 111.673C29.9861 111.787 29.6792 111.84 29.3714 111.828C29.0635 111.841 28.756 111.792 28.468 111.682C28.18 111.572 27.9174 111.405 27.6965 111.19C27.4756 110.975 27.301 110.717 27.1835 110.432C27.0659 110.147 27.0079 109.841 27.013 109.533Z" fill="#263238"/>
<path id="Vector_5" d="M31.4627 110.096C31.4613 109.753 31.5617 109.418 31.7511 109.132C31.9406 108.846 32.2105 108.623 32.5269 108.491C32.8432 108.359 33.1916 108.323 33.5281 108.389C33.8645 108.455 34.1737 108.62 34.4166 108.862C34.6595 109.104 34.8252 109.412 34.8926 109.748C34.96 110.085 34.9261 110.433 34.7952 110.75C34.6643 111.067 34.4424 111.338 34.1574 111.528C33.8725 111.719 33.5373 111.821 33.1945 111.821C32.9656 111.829 32.7375 111.789 32.5243 111.705C32.3111 111.622 32.1174 111.495 31.9551 111.333C31.7928 111.172 31.6653 110.978 31.5806 110.766C31.4959 110.553 31.4558 110.325 31.4627 110.096ZM34.4547 110.096C34.4437 109.848 34.3599 109.608 34.2138 109.407C34.0677 109.206 33.8657 109.053 33.633 108.965C33.4003 108.878 33.1471 108.862 32.905 108.917C32.6628 108.973 32.4423 109.098 32.271 109.278C32.0996 109.458 31.985 109.685 31.9413 109.929C31.8976 110.174 31.9267 110.426 32.0252 110.654C32.1236 110.882 32.2869 111.076 32.4948 111.213C32.7027 111.349 32.946 111.421 33.1945 111.419C33.3664 111.423 33.537 111.39 33.6956 111.324C33.8543 111.258 33.9974 111.159 34.1159 111.035C34.2344 110.911 34.3257 110.763 34.3841 110.601C34.4424 110.439 34.4665 110.267 34.4547 110.096Z" fill="#263238"/>
<path id="Vector_6" d="M38.9813 109.821V111.793H38.5237V109.864C38.5443 109.722 38.5327 109.577 38.4897 109.441C38.4466 109.304 38.3733 109.179 38.2752 109.075C38.177 108.971 38.0565 108.89 37.9228 108.839C37.7891 108.788 37.6455 108.767 37.5028 108.779C37.3401 108.768 37.1768 108.793 37.0245 108.851C36.8723 108.91 36.7346 109.001 36.6213 109.119C36.508 109.236 36.4216 109.377 36.3684 109.531C36.3151 109.685 36.2963 109.849 36.3131 110.011V111.793H35.8555V108.392H36.2919V109.019C36.4289 108.804 36.6218 108.63 36.85 108.516C37.0781 108.402 37.333 108.352 37.5873 108.371C37.7791 108.356 37.9717 108.384 38.1514 108.453C38.3311 108.521 38.4934 108.628 38.6267 108.767C38.76 108.906 38.8609 109.072 38.9222 109.254C38.9835 109.437 39.0037 109.63 38.9813 109.821Z" fill="#263238"/>
<path id="Vector_7" d="M41.3327 106.97C41.5847 106.957 41.8335 107.032 42.0367 107.181L41.8818 107.526C41.7388 107.41 41.5588 107.35 41.3749 107.357C40.9877 107.357 40.7765 107.576 40.7765 107.998V108.392H41.8255V108.779H40.7906V111.793H40.333V108.779H39.7275V108.392H40.333V107.977C40.3225 107.843 40.3411 107.708 40.3876 107.581C40.434 107.455 40.5072 107.34 40.6021 107.244C40.697 107.149 40.8114 107.075 40.9374 107.027C41.0635 106.98 41.1983 106.961 41.3327 106.97ZM43.501 107.315C43.502 107.36 43.4939 107.404 43.4772 107.446C43.4606 107.487 43.4357 107.525 43.4042 107.556C43.3726 107.588 43.335 107.613 43.2935 107.629C43.2521 107.646 43.2077 107.654 43.1631 107.653C43.1161 107.66 43.0681 107.657 43.0225 107.643C42.9769 107.63 42.9346 107.607 42.8987 107.576C42.8627 107.545 42.8339 107.507 42.8141 107.463C42.7943 107.42 42.7841 107.373 42.7841 107.326C42.7841 107.278 42.7943 107.231 42.8141 107.188C42.8339 107.145 42.8627 107.106 42.8987 107.075C42.9346 107.044 42.9769 107.021 43.0225 107.008C43.0681 106.995 43.1161 106.991 43.1631 106.998C43.2062 106.996 43.2493 107.003 43.2897 107.018C43.3302 107.033 43.3672 107.056 43.3987 107.086C43.4302 107.115 43.4555 107.151 43.473 107.19C43.4906 107.229 43.5001 107.272 43.501 107.315ZM42.9308 108.392H43.3884V111.793H42.9308V108.392Z" fill="#263238"/>
<path id="Vector_8" d="M46.3803 108.371V108.815H46.2676C46.1059 108.807 45.9444 108.835 45.7947 108.897C45.6451 108.958 45.511 109.053 45.402 109.172C45.293 109.292 45.2118 109.434 45.1643 109.589C45.1168 109.744 45.1041 109.907 45.1271 110.068V111.8H44.6836V108.399H45.1201V109.068C45.2361 108.839 45.4183 108.65 45.643 108.526C45.8677 108.402 46.1245 108.348 46.3803 108.371Z" fill="#263238"/>
<path id="Vector_9" d="M52.808 109.821V111.792H52.3504V109.863C52.3504 109.159 51.9913 108.779 51.3789 108.779C51.2192 108.772 51.0598 108.8 50.9118 108.86C50.7639 108.921 50.631 109.013 50.5224 109.13C50.4138 109.248 50.3321 109.387 50.283 109.539C50.234 109.692 50.2187 109.853 50.2384 110.011V111.792H49.7808V109.863C49.7808 109.159 49.4217 108.779 48.8022 108.779C48.6428 108.773 48.484 108.802 48.3366 108.863C48.1893 108.924 48.0569 109.016 47.9485 109.133C47.8402 109.25 47.7584 109.389 47.7089 109.541C47.6594 109.692 47.6433 109.853 47.6617 110.011V111.792H47.2041V108.392H47.6476V109.012C47.7813 108.805 47.9667 108.638 48.1853 108.525C48.4039 108.413 48.6482 108.36 48.8937 108.371C49.1423 108.351 49.3911 108.408 49.6064 108.534C49.8217 108.66 49.9931 108.849 50.0976 109.075C50.2371 108.847 50.4359 108.661 50.6727 108.537C50.9094 108.413 51.1754 108.356 51.4422 108.371C51.6326 108.357 51.8239 108.385 52.0019 108.454C52.1799 108.523 52.3402 108.631 52.4711 108.77C52.6021 108.909 52.7003 109.076 52.7585 109.258C52.8168 109.439 52.8337 109.632 52.808 109.821Z" fill="#263238"/>
<path id="Vector_10" d="M59.6223 107.273V111.793H59.2281L56.3205 108.125V111.793H55.8418V107.273H56.236L59.1506 110.941V107.273H59.6223Z" fill="#263238"/>
<path id="Vector_11" d="M63.953 110.237H61.1369C61.1459 110.403 61.1877 110.565 61.26 110.715C61.3324 110.864 61.4337 110.998 61.5582 111.108C61.6827 111.218 61.8278 111.302 61.9851 111.356C62.1424 111.409 62.3088 111.431 62.4745 111.42C62.6697 111.426 62.8637 111.389 63.0427 111.311C63.2217 111.233 63.3811 111.116 63.5094 110.969L63.7699 111.272C63.5259 111.526 63.2123 111.704 62.8682 111.781C62.5241 111.859 62.1648 111.833 61.8351 111.708C61.5054 111.583 61.2199 111.363 61.0144 111.076C60.8088 110.789 60.6923 110.448 60.6793 110.096C60.6667 109.872 60.7004 109.648 60.7781 109.438C60.8559 109.227 60.9761 109.035 61.1313 108.874C61.2865 108.712 61.4734 108.584 61.6803 108.497C61.8871 108.411 62.1096 108.368 62.3338 108.371C62.5579 108.367 62.7806 108.409 62.9876 108.495C63.1946 108.581 63.3814 108.71 63.5363 108.872C63.6912 109.034 63.8107 109.226 63.8873 109.437C63.9638 109.648 63.9958 109.872 63.9811 110.096C63.96 110.131 63.953 110.18 63.953 110.237ZM61.1369 109.892H63.5446C63.5446 109.573 63.4178 109.266 63.192 109.041C62.9663 108.815 62.6601 108.688 62.3408 108.688C62.0215 108.688 61.7153 108.815 61.4895 109.041C61.2638 109.266 61.1369 109.573 61.1369 109.892Z" fill="#263238"/>
<path id="Vector_12" d="M69.8167 108.392L68.5284 111.793H68.099L67.0289 109.012L65.9588 111.793H65.5223L64.248 108.392H64.6845L65.7476 111.279L66.8388 108.392H67.2119L68.2961 111.279L69.3732 108.392H69.8167Z" fill="#263238"/>
<path id="Vector_13" d="M75.8361 108.822C75.8361 109.786 75.1321 110.363 73.9845 110.363H72.7736V111.771H72.2949V107.252H73.9845C75.1391 107.273 75.8361 107.85 75.8361 108.822ZM75.3574 108.822C75.3574 108.118 74.8786 107.688 73.9493 107.688H72.7736V109.948H73.9775C74.8786 109.948 75.3574 109.533 75.3574 108.822Z" fill="#263238"/>
<path id="Vector_14" d="M79.2993 109.688V111.8H78.8628V111.272C78.7349 111.46 78.5592 111.61 78.3538 111.708C78.1485 111.806 77.9208 111.847 77.6941 111.828C76.9268 111.828 76.4551 111.427 76.4551 110.842C76.4551 110.258 76.786 109.864 77.7716 109.864H78.8487V109.659C78.8487 109.082 78.5178 108.765 77.8842 108.765C77.4741 108.76 77.0753 108.9 76.7578 109.16L76.5536 108.822C76.9542 108.508 77.453 108.345 77.9616 108.364C78.1412 108.343 78.3232 108.363 78.4941 108.421C78.665 108.48 78.8205 108.577 78.949 108.704C79.0775 108.831 79.1757 108.986 79.2363 109.156C79.2969 109.326 79.3185 109.508 79.2993 109.688ZM78.8417 110.772V110.216H77.7716C77.1098 110.216 76.8986 110.476 76.8986 110.821C76.8986 111.166 77.2154 111.462 77.7575 111.462C77.988 111.476 78.2171 111.417 78.4119 111.293C78.6067 111.169 78.7572 110.987 78.8417 110.772Z" fill="#263238"/>
<path id="Vector_15" d="M80.0742 111.405L80.2854 111.039C80.6349 111.293 81.0574 111.426 81.4893 111.419C82.137 111.419 82.3975 111.201 82.3975 110.87C82.3975 109.983 80.201 110.68 80.201 109.336C80.201 108.779 80.6797 108.371 81.5386 108.371C81.9616 108.362 82.3787 108.472 82.7424 108.688L82.5453 109.054C82.2462 108.859 81.8955 108.758 81.5386 108.765C80.9261 108.765 80.6586 109.005 80.6586 109.321C80.6586 110.244 82.8621 109.554 82.8621 110.856C82.8621 111.44 82.3411 111.821 81.4541 111.821C80.9614 111.834 80.4774 111.689 80.0742 111.405Z" fill="#263238"/>
<path id="Vector_16" d="M83.2354 111.405L83.4395 111.039C83.7923 111.292 84.2166 111.425 84.6504 111.419C85.291 111.419 85.5586 111.201 85.5586 110.87C85.5586 109.983 83.355 110.68 83.355 109.336C83.355 108.779 83.8337 108.371 84.6997 108.371C85.1204 108.363 85.535 108.473 85.8965 108.688L85.6994 109.054C85.4029 108.859 85.0544 108.759 84.6997 108.765C84.0872 108.765 83.8126 109.005 83.8126 109.321C83.8126 110.244 86.0162 109.554 86.0162 110.856C86.0162 111.441 85.5022 111.821 84.6082 111.821C84.1175 111.835 83.6355 111.69 83.2354 111.405Z" fill="#263238"/>
<path id="Vector_17" d="M91.7814 108.392L90.4931 111.793H90.0636L88.9935 109.012L87.9234 111.793H87.4869L86.2197 108.392H86.6562L87.7193 111.279L88.8105 108.392H89.2047L90.2889 111.279L91.366 108.392H91.7814Z" fill="#263238"/>
<path id="Vector_18" d="M92.0352 110.096C92.0352 109.755 92.1361 109.422 92.3254 109.138C92.5146 108.855 92.7836 108.634 93.0983 108.503C93.4131 108.372 93.7595 108.338 94.0939 108.404C94.4283 108.47 94.7356 108.633 94.9771 108.874C95.2186 109.114 95.3834 109.421 95.4508 109.755C95.5181 110.089 95.485 110.436 95.3555 110.751C95.226 111.066 95.0061 111.336 94.7233 111.527C94.4406 111.717 94.1079 111.819 93.767 111.821C93.5378 111.83 93.3092 111.791 93.0956 111.708C92.8819 111.624 92.6878 111.497 92.5253 111.336C92.3628 111.174 92.2353 110.98 92.151 110.767C92.0667 110.553 92.0273 110.325 92.0352 110.096ZM95.0202 110.096C95.0077 109.849 94.9232 109.612 94.7771 109.413C94.631 109.214 94.4298 109.063 94.1983 108.977C93.9668 108.892 93.7153 108.876 93.475 108.932C93.2347 108.988 93.0162 109.114 92.8465 109.293C92.6768 109.472 92.5635 109.697 92.5206 109.94C92.4777 110.183 92.5071 110.433 92.6051 110.66C92.7031 110.886 92.8655 111.079 93.072 111.214C93.2786 111.349 93.5203 111.42 93.767 111.419C93.9383 111.422 94.1082 111.389 94.2659 111.322C94.4237 111.255 94.566 111.157 94.6838 111.032C94.8015 110.908 94.8922 110.761 94.9501 110.599C95.008 110.438 95.0319 110.267 95.0202 110.096Z" fill="#263238"/>
<path id="Vector_19" d="M98.1317 108.371V108.815H98.026C97.8643 108.807 97.7028 108.835 97.5532 108.897C97.4035 108.958 97.2694 109.053 97.1604 109.172C97.0514 109.292 96.9703 109.434 96.9227 109.589C96.8752 109.744 96.8625 109.907 96.8855 110.068V111.8H96.4209V108.399H96.8644V109.068C96.9809 108.838 97.1642 108.648 97.3903 108.524C97.6164 108.399 97.8748 108.346 98.1317 108.371Z" fill="#263238"/>
<path id="Vector_20" d="M102.025 106.998V111.793H101.589V111.089C101.453 111.312 101.26 111.495 101.03 111.619C100.8 111.743 100.541 111.803 100.28 111.793C99.8221 111.793 99.3833 111.611 99.0599 111.287C98.7364 110.964 98.5547 110.525 98.5547 110.068C98.5547 109.61 98.7364 109.172 99.0599 108.848C99.3833 108.525 99.8221 108.343 100.28 108.343C100.534 108.334 100.786 108.391 101.011 108.508C101.237 108.626 101.429 108.799 101.568 109.012V106.97L102.025 106.998ZM101.575 110.096C101.562 109.85 101.478 109.613 101.332 109.414C101.187 109.215 100.986 109.064 100.755 108.978C100.524 108.892 100.272 108.876 100.032 108.932C99.7922 108.987 99.5736 109.112 99.4037 109.29C99.2337 109.469 99.1198 109.693 99.0761 109.936C99.0324 110.178 99.0608 110.428 99.1577 110.655C99.2547 110.882 99.416 111.075 99.6216 111.211C99.8273 111.347 100.068 111.419 100.315 111.419C100.487 111.423 100.657 111.39 100.816 111.324C100.974 111.258 101.118 111.16 101.236 111.035C101.355 110.911 101.446 110.763 101.504 110.601C101.563 110.439 101.587 110.267 101.575 110.096Z" fill="#263238"/>
</g>
<path id="Vector_21" opacity="0.2" d="M114.479 132.821H22.3662V148.591H114.479V132.821Z" fill="black"/>
<g id="Group_2" opacity="0.5">
<path id="Vector_22" d="M22.9361 64.6663V65.7223H24.3441V65.9687H22.9361V67.1162H22.6475V64.4199H24.499V64.6663H22.9361Z" fill="black"/>
<path id="Vector_23" d="M24.7594 66.1024C24.7594 65.8977 24.8201 65.6976 24.9338 65.5274C25.0476 65.3573 25.2092 65.2246 25.3983 65.1463C25.5874 65.068 25.7955 65.0475 25.9962 65.0874C26.197 65.1273 26.3814 65.2259 26.5261 65.3706C26.6708 65.5154 26.7694 65.6998 26.8093 65.9005C26.8493 66.1013 26.8288 66.3093 26.7504 66.4984C26.6721 66.6875 26.5395 66.8492 26.3693 66.9629C26.1991 67.0766 25.999 67.1373 25.7943 67.1373C25.6571 67.1422 25.5203 67.1188 25.3925 67.0685C25.2648 67.0183 25.1487 66.9422 25.0516 66.8451C24.9545 66.748 24.8784 66.632 24.8282 66.5042C24.7779 66.3764 24.7545 66.2396 24.7594 66.1024ZM26.5476 66.1024C26.5421 65.953 26.4926 65.8086 26.4055 65.6872C26.3183 65.5658 26.1973 65.4728 26.0576 65.4197C25.9179 65.3667 25.7656 65.356 25.6198 65.389C25.4741 65.4221 25.3413 65.4973 25.238 65.6054C25.1348 65.7134 25.0657 65.8495 25.0394 65.9966C25.013 66.1438 25.0307 66.2954 25.09 66.4325C25.1494 66.5697 25.2478 66.6863 25.3731 66.7679C25.4984 66.8494 25.6449 66.8922 25.7943 66.8909C25.8969 66.8931 25.9987 66.8739 26.0935 66.8346C26.1882 66.7952 26.2737 66.7366 26.3446 66.6625C26.4154 66.5883 26.47 66.5002 26.505 66.4038C26.54 66.3074 26.5545 66.2047 26.5476 66.1024Z" fill="black"/>
<path id="Vector_24" d="M28.4062 65.0746V65.3421H28.3428C28.2445 65.3336 28.1456 65.3475 28.0534 65.3827C27.9613 65.4178 27.8782 65.4734 27.8105 65.5451C27.7428 65.6169 27.6922 65.703 27.6625 65.7971C27.6328 65.8911 27.6247 65.9907 27.6388 66.0883V67.1232H27.3643V65.0886H27.6247V65.511C27.693 65.3657 27.805 65.2454 27.9452 65.1671C28.0854 65.0888 28.2467 65.0564 28.4062 65.0746Z" fill="black"/>
<path id="Vector_25" d="M30.7579 65.0886V66.8698C30.7795 67.0078 30.7682 67.1491 30.7249 67.282C30.6817 67.4149 30.6076 67.5356 30.5088 67.6345C30.4099 67.7333 30.2892 67.8073 30.1563 67.8506C30.0234 67.8939 29.8822 67.9052 29.7441 67.8835C29.4025 67.8983 29.0671 67.7882 28.8007 67.5738L28.9415 67.3626C29.1634 67.5505 29.4464 67.6507 29.7371 67.6442C30.251 67.6442 30.4833 67.4048 30.4833 66.905V66.6445C30.3962 66.7718 30.278 66.8747 30.1401 66.9437C30.0021 67.0127 29.8489 67.0454 29.6948 67.0387C29.5589 67.0503 29.422 67.0334 29.2929 66.9893C29.1637 66.9452 29.0452 66.8747 28.9447 66.7824C28.8442 66.6901 28.764 66.5779 28.7092 66.453C28.6543 66.3281 28.626 66.1931 28.626 66.0566C28.626 65.9202 28.6543 65.7852 28.7092 65.6603C28.764 65.5354 28.8442 65.4232 28.9447 65.3309C29.0452 65.2386 29.1637 65.1681 29.2929 65.124C29.422 65.0799 29.5589 65.063 29.6948 65.0746C29.8516 65.0683 30.0074 65.1018 30.1477 65.1719C30.2881 65.2421 30.4084 65.3466 30.4974 65.4758V65.0886H30.7579ZM30.4903 66.0531C30.4945 65.9005 30.4531 65.7501 30.3714 65.6212C30.2897 65.4923 30.1714 65.3906 30.0316 65.3293C29.8918 65.268 29.7368 65.2497 29.5866 65.2769C29.4364 65.3041 29.2977 65.3755 29.1883 65.4819C29.0788 65.5883 29.0036 65.725 28.9723 65.8744C28.9409 66.0238 28.9548 66.1791 29.0122 66.3206C29.0696 66.462 29.1679 66.5832 29.2945 66.6684C29.4211 66.7537 29.5703 66.7993 29.723 66.7994C29.8243 66.8087 29.9264 66.796 30.0223 66.7622C30.1182 66.7283 30.2057 66.674 30.2786 66.6031C30.3515 66.5321 30.4082 66.4463 30.4448 66.3513C30.4813 66.2564 30.4969 66.1547 30.4903 66.0531Z" fill="black"/>
<path id="Vector_26" d="M31.3073 66.1024C31.3073 65.8977 31.368 65.6976 31.4817 65.5274C31.5954 65.3573 31.757 65.2246 31.9461 65.1463C32.1352 65.068 32.3433 65.0475 32.5441 65.0874C32.7448 65.1273 32.9292 65.2259 33.074 65.3706C33.2187 65.5154 33.3173 65.6998 33.3572 65.9005C33.3971 66.1013 33.3766 66.3093 33.2983 66.4984C33.22 66.6875 33.0873 66.8492 32.9171 66.9629C32.7469 67.0766 32.5469 67.1373 32.3422 67.1373C32.2049 67.1422 32.0682 67.1188 31.9404 67.0685C31.8126 67.0183 31.6965 66.9422 31.5994 66.8451C31.5023 66.748 31.4263 66.632 31.376 66.5042C31.3258 66.3764 31.3024 66.2396 31.3073 66.1024ZM33.0955 66.1024C33.0886 65.9551 33.0386 65.8131 32.9518 65.6939C32.8649 65.5748 32.745 65.4837 32.6069 65.432C32.4688 65.3804 32.3186 65.3704 32.1748 65.4033C32.0311 65.4362 31.9002 65.5106 31.7983 65.6172C31.6965 65.7239 31.6281 65.858 31.6018 66.0031C31.5755 66.1482 31.5923 66.2978 31.6502 66.4334C31.7081 66.569 31.8046 66.6846 31.9276 66.766C32.0506 66.8473 32.1947 66.8907 32.3422 66.8909C32.4459 66.8951 32.5493 66.8774 32.6457 66.839C32.7421 66.8005 32.8294 66.7422 32.9018 66.6678C32.9742 66.5935 33.0301 66.5047 33.0659 66.4072C33.1017 66.3098 33.1165 66.206 33.1095 66.1024H33.0955Z" fill="black"/>
<path id="Vector_27" d="M35.0168 66.9965C34.893 67.0894 34.7421 67.1389 34.5873 67.1373C34.5075 67.1463 34.4267 67.1371 34.3508 67.1106C34.275 67.084 34.2061 67.0408 34.1493 66.9839C34.0925 66.9271 34.0492 66.8583 34.0227 66.7825C33.9961 66.7066 33.987 66.6258 33.996 66.546V65.321H33.6299V65.0887H33.996V64.6451H34.2705V65.0887H34.883V65.321H34.2705V66.5319C34.2705 66.7712 34.3902 66.898 34.6155 66.898C34.7246 66.9 34.8312 66.8653 34.9182 66.7994L35.0168 66.9965Z" fill="black"/>
<path id="Vector_28" d="M38.6995 65.3421C38.6995 65.9194 38.2771 66.2644 37.5942 66.2644H36.8902V67.1162H36.6016V64.4199H37.6153C38.2771 64.4199 38.6995 64.7648 38.6995 65.3421ZM38.4109 65.3421C38.4109 64.9127 38.1293 64.6381 37.5872 64.6381H36.8832V65.9828H37.5872C38.1293 66.0109 38.4109 65.7645 38.4109 65.3421Z" fill="black"/>
<path id="Vector_29" d="M40.7693 65.863V67.1162H40.5089V66.7994C40.4325 66.9136 40.3269 67.0051 40.203 67.0646C40.0792 67.124 39.9417 67.1491 39.8049 67.1373C39.3402 67.1373 39.0586 66.8979 39.0586 66.5459C39.0586 66.1939 39.2628 65.9686 39.8471 65.9686H40.4877V65.849C40.4938 65.7741 40.4829 65.6988 40.4559 65.6287C40.4288 65.5586 40.3863 65.4954 40.3315 65.444C40.2767 65.3926 40.2111 65.3542 40.1394 65.3317C40.0677 65.3092 39.9918 65.3031 39.9175 65.3139C39.661 65.3017 39.4094 65.3872 39.2135 65.5533L39.0868 65.3491C39.3207 65.164 39.6122 65.0668 39.9104 65.0746C40.0224 65.048 40.1391 65.0493 40.2505 65.0783C40.3618 65.1073 40.4643 65.1631 40.5491 65.2409C40.6338 65.3187 40.6982 65.4161 40.7366 65.5246C40.775 65.633 40.7863 65.7492 40.7693 65.863ZM40.4948 66.5107V66.1728H39.8612C39.4669 66.1728 39.3402 66.3277 39.3402 66.5389C39.3402 66.7501 39.5303 66.9191 39.8541 66.9191C39.9903 66.9271 40.1256 66.892 40.2406 66.8187C40.3556 66.7454 40.4446 66.6376 40.4948 66.5107Z" fill="black"/>
<path id="Vector_30" d="M41.2334 66.9191L41.3601 66.7079C41.5656 66.8546 41.8117 66.9333 42.0641 66.9332C42.4513 66.9332 42.6062 66.7995 42.6062 66.6023C42.6062 66.0743 41.2897 66.4897 41.2897 65.6871C41.2897 65.3562 41.5784 65.1098 42.0923 65.1098C42.3401 65.106 42.5841 65.1719 42.7963 65.2999L42.6766 65.5182C42.5006 65.3981 42.2912 65.3365 42.0782 65.3422C41.7121 65.3422 41.5502 65.483 41.5502 65.6801C41.5502 66.2292 42.8667 65.8138 42.8667 66.5953C42.8667 66.9473 42.5569 67.1726 42.0289 67.1726C41.7435 67.1751 41.4647 67.0863 41.2334 66.9191Z" fill="black"/>
<path id="Vector_31" d="M43.1201 66.9191L43.2468 66.7079C43.4527 66.8537 43.6986 66.9324 43.9509 66.9332C44.3381 66.9332 44.4929 66.7995 44.4929 66.6023C44.4929 66.0743 43.1835 66.4897 43.1835 65.6871C43.1835 65.3562 43.4651 65.1098 43.979 65.1098C44.2268 65.106 44.4708 65.1719 44.683 65.2999L44.5633 65.5182C44.3873 65.3981 44.1779 65.3365 43.9649 65.3422C43.5988 65.3422 43.4369 65.483 43.4369 65.6801C43.4369 66.2292 44.7534 65.8138 44.7534 66.5953C44.7534 66.9473 44.4437 67.1726 43.9156 67.1726C43.6302 67.1751 43.3515 67.0863 43.1201 66.9191Z" fill="black"/>
<path id="Vector_32" d="M48.2031 65.0886L47.4991 67.1162H47.2386L46.598 65.4547L45.9573 67.1162H45.6969L44.9365 65.0886H45.197L45.8306 66.8134L46.4853 65.0886H46.7177L47.3653 66.8134L48.013 65.0886H48.2031Z" fill="black"/>
<path id="Vector_33" d="M48.3786 66.1024C48.3786 65.8977 48.4393 65.6976 48.553 65.5274C48.6667 65.3573 48.8283 65.2246 49.0174 65.1463C49.2065 65.068 49.4146 65.0475 49.6154 65.0874C49.8161 65.1273 50.0005 65.2259 50.1452 65.3706C50.29 65.5154 50.3885 65.6998 50.4285 65.9005C50.4684 66.1013 50.4479 66.3093 50.3696 66.4984C50.2913 66.6875 50.1586 66.8492 49.9884 66.9629C49.8182 67.0766 49.6181 67.1373 49.4135 67.1373C49.2762 67.1422 49.1395 67.1188 49.0117 67.0685C48.8839 67.0183 48.7678 66.9422 48.6707 66.8451C48.5736 66.748 48.4976 66.632 48.4473 66.5042C48.397 66.3764 48.3736 66.2396 48.3786 66.1024ZM50.1667 66.1024C50.1599 65.9551 50.1099 65.8131 50.023 65.6939C49.9362 65.5748 49.8163 65.4837 49.6782 65.432C49.5401 65.3804 49.3898 65.3704 49.2461 65.4033C49.1024 65.4362 48.9715 65.5106 48.8696 65.6172C48.7678 65.7239 48.6994 65.858 48.6731 66.0031C48.6468 66.1482 48.6636 66.2978 48.7215 66.4334C48.7794 66.569 48.8758 66.6846 48.9988 66.766C49.1218 66.8473 49.266 66.8907 49.4135 66.8909C49.516 66.8931 49.6179 66.8739 49.7126 66.8346C49.8073 66.7952 49.8928 66.7366 49.9637 66.6625C50.0345 66.5883 50.0892 66.5002 50.1241 66.4038C50.1591 66.3074 50.1736 66.2047 50.1667 66.1024Z" fill="black"/>
<path id="Vector_34" d="M52.0253 65.0746V65.3421H51.9619C51.8636 65.3337 51.7647 65.3475 51.6725 65.3827C51.5804 65.4179 51.4973 65.4734 51.4296 65.5451C51.3619 65.6169 51.3113 65.703 51.2816 65.7971C51.2519 65.8912 51.2438 65.9907 51.2579 66.0884V67.1232H51.0186V65.0887H51.279V65.5111C51.3452 65.3718 51.4517 65.2556 51.5848 65.1777C51.718 65.0999 51.8714 65.0639 52.0253 65.0746Z" fill="black"/>
<path id="Vector_35" d="M54.356 64.2579V67.1162H54.0885V66.7149C54.0085 66.8493 53.8936 66.9596 53.756 67.034C53.6184 67.1083 53.4633 67.1441 53.307 67.1373C53.0482 67.1159 52.8069 66.998 52.631 66.8069C52.4551 66.6159 52.3574 66.3657 52.3574 66.106C52.3574 65.8462 52.4551 65.596 52.631 65.405C52.8069 65.2139 53.0482 65.096 53.307 65.0746C53.4596 65.0698 53.6109 65.1041 53.7465 65.1744C53.882 65.2446 53.9974 65.3484 54.0814 65.4759V64.2579H54.356ZM54.0814 66.1024C54.0745 65.9551 54.0246 65.8131 53.9377 65.694C53.8509 65.5748 53.731 65.4837 53.5929 65.4321C53.4547 65.3804 53.3045 65.3704 53.1608 65.4034C53.017 65.4363 52.8862 65.5107 52.7843 65.6173C52.6824 65.7239 52.6141 65.8581 52.5878 66.0031C52.5615 66.1482 52.5783 66.2978 52.6362 66.4335C52.6941 66.5691 52.7905 66.6847 52.9135 66.766C53.0365 66.8473 53.1807 66.8908 53.3281 66.8909C53.4307 66.8931 53.5326 66.8739 53.6273 66.8346C53.722 66.7953 53.8075 66.7367 53.8784 66.6625C53.9492 66.5884 54.0039 66.5003 54.0388 66.4038C54.0738 66.3074 54.0883 66.2048 54.0814 66.1024Z" fill="black"/>
<path id="Vector_36" d="M56.3481 65.1098C56.3481 64.8282 56.1228 64.6381 55.7285 64.6381C55.5897 64.6286 55.4506 64.6517 55.3223 64.7055C55.1939 64.7593 55.0799 64.8423 54.9893 64.9478L54.7852 64.793C54.9048 64.6571 55.0539 64.5504 55.221 64.4808C55.3881 64.4113 55.5689 64.3808 55.7496 64.3917C56.2847 64.3917 56.6367 64.6522 56.6367 65.0957C56.6367 65.7504 55.9327 65.7997 55.9327 66.3347H55.6511C55.644 65.673 56.3481 65.6096 56.3481 65.1098ZM55.5877 66.9191C55.5965 66.8723 55.6214 66.8301 55.658 66.7997C55.6947 66.7693 55.7408 66.7527 55.7884 66.7527C55.836 66.7527 55.8821 66.7693 55.9187 66.7997C55.9553 66.8301 55.9802 66.8723 55.989 66.9191C55.9946 66.9486 55.9935 66.9789 55.986 67.008C55.9785 67.037 55.9647 67.0641 55.9455 67.0872C55.9263 67.1103 55.9023 67.1288 55.8752 67.1416C55.848 67.1544 55.8184 67.161 55.7884 67.161C55.7583 67.161 55.7287 67.1544 55.7016 67.1416C55.6744 67.1288 55.6504 67.1103 55.6312 67.0872C55.6121 67.0641 55.5982 67.037 55.5907 67.008C55.5832 66.9789 55.5822 66.9486 55.5877 66.9191Z" fill="black"/>
</g>
<path id="Vector_37" d="M114.479 131.85H22.3662V147.619H114.479V131.85Z" fill="#50A9B0"/>
<path id="Vector_38" d="M42.4521 141.544L42.7408 140.938C43.2421 141.351 43.8729 141.573 44.5219 141.565C45.4512 141.565 45.8525 141.206 45.8525 140.734C45.8525 139.418 42.5859 140.249 42.5859 138.242C42.5859 137.411 43.2336 136.7 44.6486 136.7C45.2623 136.689 45.8662 136.855 46.3875 137.179L46.1341 137.792C45.6895 137.51 45.1749 137.359 44.6486 137.355C43.7334 137.355 43.3392 137.742 43.3392 138.214C43.3392 139.53 46.6128 138.707 46.6128 140.685C46.6128 141.516 45.9088 142.22 44.5008 142.22C43.7602 142.239 43.0361 142 42.4521 141.544Z" fill="white"/>
<path id="Vector_39" d="M51.3089 140.389H47.993C48.0452 140.739 48.227 141.056 48.5022 141.278C48.7773 141.499 49.1258 141.609 49.4784 141.586C49.6983 141.593 49.917 141.553 50.1199 141.468C50.3227 141.383 50.5049 141.255 50.6541 141.093L51.0625 141.572C50.7621 141.879 50.3794 142.092 49.9606 142.186C49.5417 142.28 49.1047 142.251 48.7021 142.102C48.2995 141.953 47.9485 141.691 47.6915 141.347C47.4346 141.003 47.2825 140.592 47.2538 140.164C47.2392 139.888 47.2817 139.612 47.3786 139.354C47.4756 139.095 47.6249 138.859 47.8172 138.661C48.0095 138.463 48.2407 138.306 48.4963 138.201C48.7519 138.097 49.0263 138.046 49.3024 138.052C49.5777 138.044 49.8515 138.095 50.1062 138.199C50.3609 138.304 50.5908 138.461 50.7812 138.66C50.9716 138.859 51.1181 139.095 51.2114 139.355C51.3047 139.614 51.3427 139.889 51.3229 140.164C51.3229 140.227 51.3159 140.319 51.3089 140.389ZM47.993 139.861H50.6189C50.5783 139.542 50.4226 139.248 50.1809 139.035C49.9392 138.822 49.6281 138.705 49.306 138.705C48.9838 138.705 48.6728 138.822 48.4311 139.035C48.1894 139.248 48.0336 139.542 47.993 139.861Z" fill="white"/>
<path id="Vector_40" d="M54.6523 141.952C54.3952 142.145 54.0796 142.245 53.7582 142.234C53.5845 142.254 53.4085 142.234 53.2433 142.177C53.078 142.12 52.9277 142.027 52.8034 141.904C52.6791 141.781 52.584 141.631 52.525 141.467C52.4661 141.302 52.4448 141.126 52.4628 140.953V138.728H51.7588V138.122H52.4628V137.228H53.202V138.122H54.3777V138.728H53.202V140.945C53.1854 141.036 53.1899 141.129 53.2153 141.218C53.2406 141.306 53.286 141.388 53.348 141.456C53.41 141.524 53.4869 141.577 53.5727 141.611C53.6585 141.644 53.7509 141.658 53.8427 141.649C54.0513 141.655 54.2553 141.588 54.4199 141.459L54.6523 141.952Z" fill="white"/>
<path id="Vector_41" d="M62.0941 138.672C62.0941 139.847 61.2423 140.551 59.8413 140.551H58.5037V142.192H57.7363V136.792H59.8484C61.2423 136.792 62.0941 137.496 62.0941 138.672ZM61.3197 138.672C61.3197 137.897 60.8058 137.461 59.8202 137.461H58.5037V139.883H59.8202C60.8058 139.883 61.3197 139.432 61.3197 138.672Z" fill="white"/>
<path id="Vector_42" d="M66.3248 139.72V142.192H65.6208V141.649C65.4636 141.852 65.2581 142.011 65.0231 142.113C64.7881 142.216 64.5312 142.257 64.2761 142.234C63.3538 142.234 62.7695 141.741 62.7695 141.03C62.7695 140.319 63.1919 139.833 64.4099 139.833H65.5856V139.692C65.5856 139.066 65.2195 138.7 64.4873 138.7C64.0182 138.7 63.5625 138.856 63.1919 139.143L62.8822 138.587C63.3712 138.228 63.9656 138.043 64.5718 138.059C65.6912 138.059 66.3248 138.601 66.3248 139.72ZM65.5856 140.938V140.368H64.438C63.734 140.368 63.5017 140.657 63.5017 141.002C63.5017 141.347 63.8396 141.664 64.4028 141.664C64.651 141.682 64.8986 141.621 65.1108 141.491C65.323 141.361 65.489 141.168 65.5856 140.938Z" fill="white"/>
<path id="Vector_43" d="M67.2119 141.755L67.5217 141.171C67.9411 141.443 68.4297 141.59 68.9297 141.593C69.6337 141.593 69.9012 141.389 69.9012 141.037C69.9012 140.122 67.3175 140.917 67.3175 139.291C67.3175 138.587 67.9722 138.059 69.0212 138.059C69.5429 138.05 70.0577 138.179 70.5137 138.432L70.1969 139.017C69.8434 138.794 69.4318 138.681 69.0142 138.693C68.3665 138.693 68.0497 138.932 68.0497 139.256C68.0497 140.22 70.6475 139.432 70.6475 141.023C70.6475 141.762 69.9435 142.234 68.8804 142.234C68.2885 142.248 67.7064 142.081 67.2119 141.755Z" fill="white"/>
<path id="Vector_44" d="M71.0488 141.755L71.3586 141.171C71.778 141.443 72.2666 141.59 72.7666 141.593C73.4706 141.593 73.7381 141.389 73.7381 141.037C73.7381 140.122 71.1544 140.917 71.1544 139.291C71.1544 138.587 71.8091 138.059 72.8581 138.059C73.3774 138.051 73.8898 138.18 74.3436 138.432L74.0268 139.017C73.6752 138.795 73.2663 138.683 72.8511 138.693C72.2034 138.693 71.8866 138.932 71.8866 139.256C71.8866 140.22 74.4773 139.432 74.4773 141.023C74.4773 141.762 73.7733 142.234 72.7103 142.234C72.1208 142.246 71.5417 142.079 71.0488 141.755Z" fill="white"/>
<path id="Vector_45" d="M81.5388 138.101L80.0111 142.192H79.3071L78.1244 139.087L76.9276 142.192H76.2236L74.71 138.101H75.414L76.6037 141.354L77.8358 138.101H78.4764L79.6873 141.368L80.9052 138.101H81.5388Z" fill="white"/>
<path id="Vector_46" d="M81.7994 140.136C81.7994 139.718 81.9232 139.31 82.1553 138.963C82.3874 138.615 82.7173 138.345 83.1032 138.185C83.4891 138.025 83.9137 137.983 84.3234 138.065C84.7331 138.146 85.1095 138.347 85.4048 138.643C85.7002 138.938 85.9014 139.314 85.9828 139.724C86.0643 140.134 86.0225 140.558 85.8627 140.944C85.7028 141.33 85.4321 141.66 85.0848 141.892C84.7375 142.124 84.3291 142.248 83.9114 142.248C83.6311 142.259 83.3516 142.212 83.0905 142.109C82.8293 142.007 82.5921 141.852 82.3938 141.654C82.1954 141.455 82.0402 141.218 81.938 140.957C81.8357 140.696 81.7885 140.416 81.7994 140.136ZM85.3194 140.136C85.3124 139.858 85.223 139.588 85.0625 139.36C84.902 139.132 84.6776 138.958 84.4178 138.858C84.158 138.758 83.8743 138.737 83.6026 138.798C83.331 138.859 83.0836 138.999 82.8917 139.201C82.6998 139.403 82.572 139.657 82.5245 139.931C82.477 140.206 82.5119 140.488 82.6248 140.743C82.7377 140.997 82.9235 141.212 83.1588 141.361C83.3941 141.51 83.6682 141.586 83.9466 141.579C84.133 141.582 84.3178 141.545 84.4894 141.473C84.661 141.4 84.8156 141.292 84.9434 141.156C85.0711 141.021 85.1693 140.86 85.2316 140.684C85.2939 140.509 85.319 140.322 85.3053 140.136H85.3194Z" fill="white"/>
<path id="Vector_47" d="M89.2756 138.059V138.763H89.1066C88.9235 138.75 88.7399 138.779 88.5695 138.847C88.399 138.915 88.2461 139.02 88.1223 139.156C87.9984 139.291 87.9067 139.453 87.854 139.629C87.8014 139.805 87.7892 139.99 87.8183 140.171V142.213H87.1143V138.122H87.8183V138.826C87.9657 138.576 88.1802 138.371 88.4376 138.235C88.6951 138.1 88.9853 138.039 89.2756 138.059Z" fill="white"/>
<path id="Vector_48" d="M94.0063 136.468V142.192H93.3023V141.544C93.1351 141.771 92.9149 141.954 92.661 142.077C92.407 142.199 92.1269 142.258 91.845 142.248C91.3465 142.171 90.892 141.918 90.5636 141.536C90.2352 141.153 90.0547 140.665 90.0547 140.161C90.0547 139.656 90.2352 139.168 90.5636 138.786C90.892 138.403 91.3465 138.15 91.845 138.073C92.115 138.067 92.3828 138.123 92.6272 138.238C92.8716 138.353 93.0858 138.523 93.253 138.735V136.482L94.0063 136.468ZM93.2601 140.136C93.253 139.858 93.1636 139.588 93.0031 139.36C92.8426 139.132 92.6183 138.958 92.3585 138.858C92.0986 138.757 91.8149 138.737 91.5433 138.798C91.2716 138.859 91.0242 138.999 90.8323 139.201C90.6404 139.403 90.5127 139.657 90.4652 139.931C90.4177 140.206 90.4526 140.488 90.5655 140.742C90.6784 140.997 90.8642 141.212 91.0995 141.361C91.3348 141.51 91.6089 141.586 91.8873 141.579C92.0748 141.584 92.2612 141.549 92.4345 141.477C92.6077 141.405 92.7641 141.298 92.8934 141.162C93.0227 141.026 93.1221 140.864 93.1852 140.688C93.2484 140.511 93.2739 140.323 93.2601 140.136Z" fill="white"/>
<g id="Group_3" opacity="0.6">
<path id="Vector_49" d="M39.3401 24.7983L38.0659 22.982C37.9462 22.982 37.8195 22.982 37.6927 22.982H36.2354V24.7772H35.3906V18.8635H37.6927C39.2275 18.8635 40.1568 19.645 40.1568 20.9263C40.1763 21.3364 40.0599 21.7416 39.8257 22.0789C39.5915 22.4162 39.2525 22.6668 38.8614 22.7919L40.2694 24.7772L39.3401 24.7983ZM39.3401 20.9474C39.3401 20.1026 38.7769 19.6239 37.6927 19.6239H36.2847V22.285H37.6927C38.7487 22.285 39.3119 21.7922 39.3119 20.9474H39.3401Z" fill="#263238"/>
<path id="Vector_50" d="M45.4372 22.8342H41.8116C41.8626 23.2177 42.0592 23.5668 42.3607 23.8093C42.6621 24.0517 43.0453 24.1689 43.4308 24.1366C43.6714 24.1457 43.9112 24.1026 44.1335 24.0102C44.3559 23.9179 44.5557 23.7785 44.7191 23.6016L45.1697 24.1226C44.8393 24.4583 44.4186 24.691 43.9587 24.7926C43.4987 24.8942 43.0192 24.8602 42.5782 24.6948C42.1371 24.5294 41.7535 24.2397 41.4737 23.8607C41.194 23.4818 41.0301 23.0298 41.0019 22.5597C40.9893 22.2597 41.0384 21.9604 41.1464 21.6802C41.2543 21.4001 41.4187 21.1452 41.6293 20.9313C41.8399 20.7173 42.0923 20.549 42.3707 20.4368C42.6491 20.3245 42.9476 20.2707 43.2477 20.2787C43.5467 20.2713 43.8439 20.3261 44.1205 20.4395C44.3972 20.5529 44.6473 20.7225 44.8551 20.9376C45.0629 21.1526 45.2238 21.4084 45.3276 21.6889C45.4314 21.9693 45.4759 22.2682 45.4583 22.5667C45.4588 22.6563 45.4518 22.7458 45.4372 22.8342ZM41.8116 22.2499H44.6839C44.6839 21.8699 44.533 21.5055 44.2643 21.2368C43.9956 20.9682 43.6312 20.8172 43.2512 20.8172C42.8713 20.8172 42.5069 20.9682 42.2382 21.2368C41.9695 21.5055 41.8186 21.8699 41.8186 22.2499H41.8116Z" fill="#263238"/>
<path id="Vector_51" d="M46.0137 24.3267L46.3516 23.686C46.8196 23.9881 47.3645 24.1493 47.9215 24.1507C48.6748 24.1507 48.9846 23.9183 48.9846 23.5382C48.9846 22.5385 46.1686 23.4044 46.1686 21.6233C46.1686 20.8207 46.8726 20.2786 48.0342 20.2786C48.6026 20.2703 49.1634 20.411 49.6604 20.6869L49.3155 21.3276C48.9292 21.0878 48.4816 20.9655 48.0271 20.9756C47.3231 20.9756 46.9711 21.2361 46.9711 21.5881C46.9711 22.6441 49.7872 21.7852 49.7872 23.5241C49.7872 24.3337 49.0409 24.8476 47.8511 24.8476C47.2001 24.8631 46.5597 24.6815 46.0137 24.3267Z" fill="#263238"/>
<path id="Vector_52" d="M54.8424 22.8342H51.2097C51.264 23.2162 51.4615 23.5633 51.7621 23.8051C52.0628 24.047 52.4441 24.1655 52.8289 24.1366C53.0706 24.1458 53.3114 24.1027 53.535 24.0104C53.7585 23.9181 53.9595 23.7786 54.1243 23.6016L54.5748 24.1225C54.3489 24.3609 54.0738 24.5473 53.7687 24.6688C53.4636 24.7904 53.1358 24.8442 52.8078 24.8266C52.4957 24.8503 52.1821 24.8083 51.8873 24.7033C51.5924 24.5983 51.3228 24.4327 51.096 24.2171C50.8691 24.0015 50.6899 23.7407 50.5701 23.4516C50.4502 23.1625 50.3923 22.8514 50.4001 22.5385C50.3885 22.2389 50.4384 21.94 50.5466 21.6603C50.6549 21.3806 50.8194 21.1261 51.0298 20.9124C51.2402 20.6987 51.4921 20.5304 51.7701 20.4177C52.048 20.3051 52.3461 20.2506 52.6459 20.2575C52.947 20.2489 53.2466 20.3035 53.5253 20.4178C53.804 20.5321 54.0557 20.7036 54.264 20.9212C54.4723 21.1388 54.6327 21.3977 54.7347 21.6811C54.8368 21.9645 54.8782 22.2662 54.8565 22.5667C54.8565 22.6512 54.8494 22.7568 54.8424 22.8342ZM51.2097 22.2499H54.0821C54.0467 21.8935 53.8802 21.563 53.6147 21.3226C53.3493 21.0822 53.004 20.949 52.6459 20.949C52.2878 20.949 51.9424 21.0822 51.677 21.3226C51.4116 21.563 51.245 21.8935 51.2097 22.2499Z" fill="#263238"/>
<path id="Vector_53" d="M58.5034 24.5379C58.2224 24.7504 57.8769 24.8598 57.5248 24.8476C57.335 24.8676 57.1431 24.8448 56.9633 24.7811C56.7834 24.7174 56.62 24.6143 56.4851 24.4794C56.3501 24.3444 56.247 24.181 56.1833 24.0012C56.1196 23.8213 56.0968 23.6294 56.1168 23.4396V20.9826H55.3564V20.3138H56.1168V19.3353H56.9264V20.3138H58.2077V20.9826H56.9264V23.4044C56.9124 23.5024 56.9206 23.6022 56.9503 23.6965C56.98 23.7909 57.0305 23.8773 57.0981 23.9496C57.1656 24.0219 57.2485 24.0781 57.3406 24.1141C57.4327 24.1501 57.5318 24.165 57.6304 24.1577C57.8591 24.1587 58.0817 24.0845 58.264 23.9465L58.5034 24.5379Z" fill="#263238"/>
<path id="Vector_54" d="M66.6421 20.9474C66.6421 22.2287 65.7128 23.0102 64.1781 23.0102H62.7208V24.7984H61.876V18.8847H64.1781C65.7128 18.8847 66.6421 19.6661 66.6421 20.9474ZM65.7973 20.9474C65.7973 20.1026 65.2341 19.6239 64.1499 19.6239H62.7419V22.271H64.1499C65.2341 22.271 65.8043 21.7922 65.8043 20.9474H65.7973Z" fill="#263238"/>
<path id="Vector_55" d="M71.274 22.095V24.7984H70.5067V24.207C70.3355 24.4294 70.1107 24.6047 69.8535 24.7168C69.5962 24.8288 69.3147 24.8738 69.0353 24.8476C68.0215 24.8476 67.3809 24.3056 67.3809 23.5311C67.3809 22.7567 67.8455 22.2217 69.1761 22.2217H70.4644V22.0598C70.4644 21.3558 70.0631 20.9826 69.2606 20.9826C68.7506 20.9782 68.2542 21.147 67.8526 21.4614L67.5146 20.8559C68.0501 20.4623 68.7019 20.2591 69.3662 20.2786C70.5841 20.2786 71.274 20.87 71.274 22.095ZM70.4644 23.4326V22.806H69.2113C68.4087 22.806 68.1834 23.1158 68.1834 23.51C68.1834 23.9043 68.5566 24.214 69.169 24.214C69.4396 24.2359 69.7102 24.1723 69.9427 24.0321C70.1751 23.8918 70.3576 23.6821 70.4644 23.4326Z" fill="#263238"/>
<path id="Vector_56" d="M72.21 24.3267L72.5479 23.6861C73.0159 23.9882 73.5608 24.1494 74.1178 24.1507C74.8711 24.1507 75.1879 23.9184 75.1879 23.5383C75.1879 22.5386 72.3719 23.4045 72.3719 21.6234C72.3719 20.8208 73.0759 20.2787 74.2375 20.2787C74.8061 20.2693 75.367 20.4102 75.8638 20.687L75.5188 21.3277C75.1329 21.0871 74.685 20.9648 74.2305 20.9757C73.5265 20.9757 73.1744 21.2361 73.1744 21.5882C73.1744 22.6442 75.9905 21.7853 75.9905 23.5242C75.9905 24.3338 75.2442 24.8477 74.0545 24.8477C73.4013 24.8633 72.7585 24.6817 72.21 24.3267Z" fill="#263238"/>
<path id="Vector_57" d="M76.4482 24.3266L76.7862 23.686C77.2538 23.9888 77.799 24.1501 78.3561 24.1506C79.1023 24.1506 79.4192 23.9183 79.4192 23.5382C79.4192 22.5385 76.6031 23.4044 76.6031 21.6233C76.6031 20.8207 77.3071 20.2786 78.4687 20.2786C79.0394 20.2703 79.6024 20.4111 80.102 20.6869L79.75 21.3276C79.3641 21.0871 78.9163 20.9647 78.4617 20.9756C77.7577 20.9756 77.4057 21.2361 77.4057 21.5881C77.4057 22.6441 80.2217 21.7852 80.2217 23.5241C80.2217 24.3337 79.4755 24.8476 78.2857 24.8476C77.6346 24.8644 76.9937 24.6827 76.4482 24.3266Z" fill="#263238"/>
<path id="Vector_58" d="M87.931 20.3209L86.2625 24.7983H85.5163L84.228 21.405L82.9185 24.7983H82.1371L80.4756 20.3209H81.243L82.5454 23.8902L83.8971 20.3209H84.6011L85.9246 23.9043L87.2622 20.3209H87.931Z" fill="#263238"/>
<path id="Vector_59" d="M88.2127 22.5667C88.2043 22.1041 88.3338 21.6495 88.5847 21.2608C88.8356 20.8721 89.1965 20.5668 89.6215 20.384C90.0465 20.2011 90.5163 20.1489 90.9711 20.234C91.4259 20.319 91.845 20.5376 92.1752 20.8617C92.5053 21.1859 92.7315 21.601 92.8249 22.0541C92.9183 22.5072 92.8747 22.9779 92.6996 23.4062C92.5245 23.8345 92.2259 24.2009 91.8419 24.4589C91.4578 24.7169 91.0056 24.8547 90.543 24.8547C90.2369 24.8684 89.9313 24.8188 89.6452 24.7092C89.3591 24.5996 89.0987 24.4323 88.8801 24.2177C88.6615 24.003 88.4894 23.7457 88.3746 23.4616C88.2598 23.1776 88.2046 22.873 88.2127 22.5667ZM92.0495 22.5667C92.0357 22.2721 91.9358 21.9881 91.7621 21.7498C91.5884 21.5114 91.3486 21.3293 91.0724 21.226C90.7962 21.1227 90.4957 21.1027 90.2082 21.1686C89.9208 21.2344 89.659 21.3832 89.4552 21.5964C89.2515 21.8096 89.1149 22.078 89.0622 22.3681C89.0096 22.6583 89.0432 22.9575 89.1591 23.2288C89.2749 23.5 89.4677 23.7312 89.7137 23.8939C89.9597 24.0565 90.2481 24.1434 90.543 24.1437C90.7483 24.1491 90.9526 24.1115 91.1425 24.0332C91.3325 23.955 91.504 23.8378 91.6459 23.6892C91.7878 23.5407 91.897 23.364 91.9666 23.1707C92.0361 22.9774 92.0643 22.7716 92.0495 22.5667Z" fill="#263238"/>
<path id="Vector_60" d="M96.3997 20.2786V21.0671H96.2097C96.0127 21.0538 95.8152 21.0846 95.6316 21.157C95.448 21.2295 95.2828 21.3419 95.148 21.4862C95.0132 21.6304 94.9122 21.8028 94.8523 21.9909C94.7924 22.179 94.7751 22.3781 94.8016 22.5737V24.8054H93.9639V20.3279H94.7383V21.0812C94.9102 20.8032 95.1578 20.5801 95.4521 20.4379C95.7464 20.2958 96.0751 20.2405 96.3997 20.2786Z" fill="#263238"/>
<path id="Vector_61" d="M101.575 18.5327V24.7983H100.8V24.0943C100.616 24.3416 100.374 24.5402 100.096 24.6727C99.817 24.8052 99.5103 24.8676 99.2022 24.8547C98.6182 24.8222 98.0688 24.5674 97.6669 24.1425C97.265 23.7177 97.041 23.155 97.041 22.5702C97.041 21.9853 97.265 21.4227 97.6669 20.9978C98.0688 20.5729 98.6182 20.3181 99.2022 20.2857C99.4995 20.2735 99.7955 20.3308 100.067 20.453C100.338 20.5752 100.577 20.759 100.765 20.9897V18.5256L101.575 18.5327ZM100.772 22.5666C100.758 22.2718 100.658 21.9874 100.484 21.749C100.31 21.5105 100.07 21.3284 99.7933 21.2253C99.5167 21.1222 99.2159 21.1027 98.9282 21.1691C98.6406 21.2355 98.3788 21.385 98.1754 21.5989C97.972 21.8128 97.8359 22.0818 97.784 22.3724C97.7322 22.663 97.7668 22.9625 97.8837 23.2335C98.0006 23.5046 98.1945 23.7354 98.4414 23.8972C98.6884 24.059 98.9774 24.1447 99.2726 24.1436C99.4774 24.1481 99.6808 24.1097 99.87 24.031C100.059 23.9523 100.23 23.8349 100.371 23.6865C100.512 23.5381 100.621 23.3618 100.69 23.1689C100.759 22.9761 100.787 22.771 100.772 22.5666Z" fill="#263238"/>
</g>
<path id="Vector_62" d="M114.479 78.2959H22.3662V94.0657H114.479V78.2959Z" fill="white"/>
<g id="Group_4" opacity="0.4">
<path id="Vector_63" d="M31.1877 83.6111V88.1308H30.7935L27.8859 84.4629V88.1308H27.4072V83.6111H27.7874L30.702 87.279V83.6111H31.1877Z" fill="#263238"/>
<path id="Vector_64" d="M35.5321 86.575H32.716C32.725 86.7409 32.7668 86.9034 32.8391 87.053C32.9115 87.2026 33.0128 87.3363 33.1373 87.4464C33.2617 87.5565 33.4069 87.6407 33.5642 87.6941C33.7215 87.7476 33.8879 87.7692 34.0536 87.7578C34.2481 87.764 34.4415 87.7275 34.6203 87.6509C34.7991 87.5742 34.9589 87.4593 35.0885 87.3142L35.349 87.6099C35.1051 87.8647 34.7914 88.0419 34.4473 88.1195C34.1032 88.1971 33.7438 88.1716 33.4141 88.0462C33.0844 87.9208 32.799 87.701 32.5935 87.4143C32.3879 87.1276 32.2714 86.7867 32.2584 86.4342C32.2458 86.2104 32.2795 85.9863 32.3572 85.7761C32.435 85.5658 32.5552 85.3737 32.7104 85.2119C32.8656 85.0501 33.0525 84.922 33.2593 84.8356C33.4662 84.7491 33.6887 84.7062 33.9128 84.7094C34.137 84.705 34.3597 84.7473 34.5667 84.8334C34.7737 84.9196 34.9606 85.0478 35.1154 85.21C35.2703 85.3721 35.3898 85.5646 35.4664 85.7754C35.5429 85.9861 35.5749 86.2105 35.5602 86.4342C35.5321 86.4765 35.5321 86.5258 35.5321 86.575ZM32.716 86.2371H35.1237C35.1237 85.9178 34.9969 85.6116 34.7711 85.3859C34.5454 85.1601 34.2392 85.0333 33.9199 85.0333C33.6006 85.0333 33.2944 85.1601 33.0686 85.3859C32.8429 85.6116 32.716 85.9178 32.716 86.2371Z" fill="#263238"/>
<path id="Vector_65" d="M41.3822 84.7375L40.1009 88.1309H39.6644L38.5943 85.35L37.5242 88.1309H37.0877L35.8135 84.7375H36.2359L37.2989 87.624L38.3901 84.7375H38.7844L39.8686 87.624L40.9457 84.7375H41.3822Z" fill="#263238"/>
<path id="Vector_66" d="M47.4015 85.1599C47.4015 86.1244 46.6975 86.7087 45.557 86.7087H44.3391V88.1167H43.8604V83.597H45.557C46.7045 83.6111 47.4015 84.1954 47.4015 85.1599ZM46.9228 85.1599C46.9228 84.4559 46.4441 84.0264 45.5148 84.0264H44.3109V86.2863H45.5148C46.4441 86.2863 46.9228 85.8709 46.9228 85.1599Z" fill="#263238"/>
<path id="Vector_67" d="M50.8657 86.0258V88.1379H50.4292V87.6099C50.3032 87.8003 50.1281 87.9532 49.9224 88.0523C49.7167 88.1515 49.488 88.1932 49.2605 88.1731C48.4932 88.1731 48.0215 87.7718 48.0215 87.1874C48.0215 86.6031 48.3594 86.223 49.3309 86.223H50.4081V86.0188C50.4204 85.8924 50.4036 85.7649 50.359 85.646C50.3144 85.5272 50.2431 85.4201 50.1506 85.3331C50.0582 85.2461 49.947 85.1814 49.8256 85.1441C49.7043 85.1067 49.576 85.0977 49.4506 85.1177C49.0368 85.1105 48.6343 85.253 48.3172 85.5189L48.113 85.174C48.5135 84.8599 49.0124 84.6978 49.521 84.7164C49.6998 84.6945 49.8812 84.713 50.0519 84.7705C50.2225 84.8281 50.3781 84.9232 50.5072 85.0488C50.6362 85.1745 50.7354 85.3275 50.7974 85.4966C50.8595 85.6657 50.8828 85.8465 50.8657 86.0258ZM50.4081 87.11V86.5538H49.345C48.6832 86.5538 48.472 86.8143 48.472 87.1663C48.472 87.5183 48.7889 87.807 49.3309 87.807C49.5613 87.8205 49.7899 87.7603 49.9837 87.6349C50.1774 87.5096 50.3261 87.3257 50.4081 87.11Z" fill="#263238"/>
<path id="Vector_68" d="M51.6396 87.7436L51.8508 87.3846C52.2019 87.6353 52.6233 87.7684 53.0547 87.7647C53.7024 87.7647 53.9699 87.5465 53.9699 87.2086C53.9699 86.3215 51.7664 87.0255 51.7664 85.6809C51.7664 85.1247 52.2451 84.7094 53.111 84.7094C53.5313 84.7048 53.9449 84.8143 54.3078 85.0262L54.1107 85.3923C53.8138 85.1983 53.4656 85.0977 53.111 85.1036C52.4915 85.1036 52.224 85.343 52.224 85.6668C52.224 86.582 54.4275 85.8921 54.4275 87.1945C54.4275 87.7859 53.9065 88.166 53.0195 88.166C52.526 88.1778 52.042 88.0296 51.6396 87.7436Z" fill="#263238"/>
<path id="Vector_69" d="M54.7998 87.7436L55.004 87.3846C55.3591 87.6324 55.7818 87.7651 56.2149 87.7647C56.8555 87.7647 57.123 87.5465 57.123 87.2086C57.123 86.3215 54.9195 87.0255 54.9195 85.6808C54.9195 85.1247 55.3982 84.7093 56.2642 84.7093C56.6865 84.7055 57.1022 84.8149 57.468 85.0261L57.2638 85.3922C56.9677 85.1966 56.619 85.0959 56.2642 85.1036C55.6517 85.1036 55.3771 85.3429 55.3771 85.6668C55.3771 86.582 57.5806 85.892 57.5806 87.1945C57.5806 87.7858 57.0667 88.166 56.1726 88.166C55.6812 88.1787 55.1991 88.0304 54.7998 87.7436Z" fill="#263238"/>
<path id="Vector_70" d="M63.3467 84.7375L62.0654 88.1309H61.6289L60.5588 85.35L59.4676 88.1309H59.0311L57.7568 84.7375H58.1933L59.2564 87.624L60.3476 84.7375H60.7418L61.826 87.624L62.9031 84.7375H63.3467Z" fill="#263238"/>
<path id="Vector_71" d="M63.6009 86.4341C63.6023 86.0936 63.7044 85.7611 63.8945 85.4785C64.0846 85.196 64.354 84.976 64.6689 84.8463C64.9837 84.7166 65.33 84.6831 65.6639 84.7499C65.9978 84.8166 66.3045 84.9808 66.5453 85.2216C66.7861 85.4623 66.9502 85.769 67.017 86.103C67.0838 86.4369 67.0502 86.7831 66.9205 87.098C66.7909 87.4129 66.5709 87.6823 66.2883 87.8724C66.0058 88.0624 65.6732 88.1646 65.3327 88.166C65.1029 88.1749 64.8737 88.1362 64.6596 88.0523C64.4454 87.9684 64.2509 87.8412 64.0883 87.6785C63.9257 87.5159 63.7984 87.3214 63.7145 87.1073C63.6307 86.8931 63.592 86.664 63.6009 86.4341ZM66.5858 86.4341C66.5734 86.1877 66.489 85.9503 66.3429 85.7514C66.1968 85.5525 65.9955 85.4009 65.764 85.3154C65.5325 85.2299 65.281 85.2142 65.0407 85.2703C64.8004 85.3265 64.5819 85.4519 64.4122 85.6311C64.2425 85.8103 64.1292 86.0354 64.0863 86.2784C64.0434 86.5214 64.0728 86.7716 64.1708 86.9981C64.2688 87.2246 64.4312 87.4173 64.6378 87.5523C64.8443 87.6873 65.0859 87.7587 65.3327 87.7577C65.504 87.76 65.6739 87.7268 65.8316 87.6602C65.9894 87.5936 66.1317 87.495 66.2494 87.3706C66.3672 87.2463 66.4579 87.0988 66.5158 86.9376C66.5737 86.7764 66.5975 86.605 66.5858 86.4341Z" fill="#263238"/>
<path id="Vector_72" d="M69.7041 84.7094V85.1599H69.5915C69.4301 85.151 69.2687 85.178 69.119 85.239C68.9693 85.3 68.8351 85.3935 68.7259 85.5127C68.6168 85.632 68.5355 85.7739 68.488 85.9284C68.4404 86.0829 68.4278 86.246 68.451 86.406V88.1379H67.9863V84.7446H68.4299V85.4063C68.5468 85.1749 68.7312 84.9843 68.9587 84.8599C69.1862 84.7354 69.4461 84.6829 69.7041 84.7094Z" fill="#263238"/>
<path id="Vector_73" d="M73.5901 83.3436V88.1309H73.1536V87.4621C73.0181 87.6856 72.8251 87.8688 72.5949 87.9926C72.3646 88.1164 72.1054 88.1763 71.8441 88.1661C71.4048 88.138 70.9927 87.9437 70.6915 87.6227C70.3903 87.3016 70.2227 86.878 70.2227 86.4377C70.2227 85.9975 70.3903 85.5738 70.6915 85.2528C70.9927 84.9318 71.4048 84.7375 71.8441 84.7094C72.1017 84.7037 72.3563 84.7657 72.5824 84.8892C72.8085 85.0128 72.9982 85.1935 73.1325 85.4134V83.3718L73.5901 83.3436ZM73.1395 86.4342C73.1271 86.1881 73.0428 85.9509 72.897 85.7522C72.7513 85.5535 72.5504 85.4018 72.3193 85.3161C72.0882 85.2304 71.8371 85.2143 71.597 85.2698C71.3568 85.3254 71.1383 85.4501 70.9683 85.6286C70.7983 85.8071 70.6845 86.0315 70.6407 86.2741C70.597 86.5167 70.6254 86.7667 70.7224 86.9933C70.8193 87.2199 70.9806 87.4131 71.1863 87.549C71.3919 87.6849 71.6329 87.7574 71.8794 87.7578C72.0512 87.7611 72.2218 87.7286 72.3805 87.6625C72.5391 87.5963 72.6822 87.4978 72.8007 87.3733C72.9192 87.2489 73.0106 87.1011 73.0689 86.9394C73.1272 86.7777 73.1513 86.6057 73.1395 86.4342Z" fill="#263238"/>
</g>
<path id="Vector_74" d="M114.479 42.666H22.3662V58.4358H114.479V42.666Z" fill="white"/>
<g id="Group_5" opacity="0.4">
<path id="Vector_75" d="M27.013 50.2414C26.9976 49.7692 27.1235 49.3031 27.3746 48.9029C27.6258 48.5027 27.9907 48.1866 28.4226 47.9951C28.8546 47.8036 29.3338 47.7454 29.799 47.828C30.2642 47.9106 30.6942 48.1302 31.0338 48.4587C31.3734 48.7872 31.6071 49.2097 31.7051 49.6719C31.8031 50.1341 31.7609 50.615 31.5838 51.0531C31.4068 51.4911 31.1029 51.8663 30.7113 52.1306C30.3196 52.3949 29.858 52.5362 29.3855 52.5365C29.0769 52.5499 28.7688 52.5002 28.48 52.3907C28.1912 52.2811 27.9278 52.1138 27.7058 51.899C27.4838 51.6843 27.3079 51.4265 27.1887 51.1415C27.0696 50.8565 27.0098 50.5503 27.013 50.2414ZM31.2793 50.2414C31.2849 49.864 31.178 49.4935 30.9722 49.1771C30.7665 48.8606 30.4712 48.6126 30.124 48.4646C29.7768 48.3166 29.3933 48.2754 29.0226 48.3461C28.6518 48.4168 28.3105 48.5963 28.0421 48.8616C27.7738 49.127 27.5905 49.4663 27.5156 49.8362C27.4407 50.2062 27.4777 50.59 27.6218 50.9389C27.7659 51.2877 28.0106 51.5858 28.3247 51.7951C28.6388 52.0044 29.0081 52.1154 29.3855 52.114C29.6371 52.1267 29.8885 52.0873 30.1242 51.9984C30.3598 51.9094 30.5745 51.7727 30.7549 51.5969C30.9353 51.4212 31.0775 51.2101 31.1726 50.9768C31.2677 50.7436 31.3136 50.4932 31.3074 50.2414H31.2793Z" fill="#263238"/>
<path id="Vector_76" d="M32.7158 47.7068H33.1734V52.5011H32.7158V47.7068Z" fill="#263238"/>
<path id="Vector_77" d="M37.5665 47.7068V52.5011H37.13V51.7971C36.9933 52.0197 36.8002 52.202 36.5702 52.3257C36.3402 52.4494 36.0815 52.5099 35.8205 52.5011C35.3631 52.5011 34.9243 52.3194 34.6009 51.9959C34.2774 51.6725 34.0957 51.2338 34.0957 50.7763C34.0957 50.3189 34.2774 49.8801 34.6009 49.5567C34.9243 49.2332 35.3631 49.0515 35.8205 49.0515C36.078 49.0465 36.3323 49.1088 36.5582 49.2323C36.7842 49.3558 36.974 49.5361 37.1089 49.7555V47.7139L37.5665 47.7068ZM37.1159 50.7974C37.1048 50.5492 37.0211 50.3097 36.875 50.1087C36.7289 49.9077 36.5269 49.7541 36.2942 49.667C36.0615 49.5799 35.8083 49.5631 35.5662 49.6187C35.324 49.6744 35.1035 49.8 34.9322 49.98C34.7608 50.1599 34.6462 50.3863 34.6025 50.6309C34.5588 50.8755 34.5879 51.1275 34.6864 51.3557C34.7848 51.5838 34.9481 51.778 35.156 51.9141C35.3639 52.0502 35.6072 52.1221 35.8557 52.121C36.0273 52.1232 36.1974 52.0901 36.3556 52.0235C36.5137 51.957 36.6564 51.8585 36.7747 51.7342C36.893 51.61 36.9843 51.4626 37.0431 51.3014C37.1018 51.1402 37.1266 50.9687 37.1159 50.7974Z" fill="#263238"/>
<path id="Vector_78" d="M44.1699 49.5303C44.1699 50.4878 43.4658 51.0721 42.3254 51.0721H41.1145V52.4801H40.6357V47.9815H42.3254C43.4729 47.9815 44.1699 48.5588 44.1699 49.5303ZM43.6911 49.5303C43.6911 48.8263 43.2124 48.3898 42.2831 48.3898H41.0863V50.6497H42.2831C43.2124 50.6497 43.6911 50.2414 43.6911 49.5303Z" fill="#263238"/>
<path id="Vector_79" d="M47.6403 50.3962V52.5082H47.1968V51.9732C47.0708 52.1636 46.8957 52.3165 46.69 52.4156C46.4843 52.5148 46.2556 52.5565 46.0281 52.5364C45.2608 52.5364 44.7891 52.1351 44.7891 51.5507C44.7891 50.9664 45.127 50.5863 46.0985 50.5863H47.1827V50.3821C47.1827 49.7978 46.8518 49.481 46.2182 49.481C45.8048 49.4763 45.4031 49.6185 45.0848 49.8823L44.8806 49.5443C45.2793 49.2269 45.7794 49.0644 46.2886 49.0867C46.4677 49.065 46.6493 49.0836 46.8203 49.1411C46.9912 49.1987 47.1472 49.2936 47.2767 49.4191C47.4062 49.5446 47.5061 49.6975 47.569 49.8665C47.6319 50.0356 47.6563 50.2165 47.6403 50.3962ZM47.1827 51.4804V50.9242H46.0915C45.4368 50.9242 45.2185 51.1847 45.2185 51.5296C45.2185 51.8746 45.5353 52.1703 46.0774 52.1703C46.3113 52.1894 46.5452 52.1327 46.7443 52.0084C46.9434 51.8841 47.0972 51.6989 47.1827 51.4804Z" fill="#263238"/>
<path id="Vector_80" d="M48.415 52.1351L48.6192 51.769C48.972 52.0216 49.3962 52.1548 49.8301 52.1492C50.4707 52.1492 50.7383 51.9309 50.7383 51.6001C50.7383 50.713 48.5347 51.41 48.5347 50.0653C48.5347 49.5092 49.0134 49.1008 49.8794 49.1008C50.3021 49.0939 50.7186 49.2035 51.0832 49.4176L50.8791 49.7837C50.5829 49.5881 50.2342 49.4875 49.8794 49.4951C49.2669 49.4951 48.9923 49.7274 48.9923 50.0512C48.9923 50.9735 51.1959 50.2765 51.1959 51.586C51.1959 52.1703 50.6819 52.5505 49.7879 52.5505C49.2972 52.5653 48.8152 52.4194 48.415 52.1351Z" fill="#263238"/>
<path id="Vector_81" d="M51.5693 52.1351L51.7805 51.769C52.13 52.0229 52.5525 52.1563 52.9844 52.1492C53.6321 52.1492 53.8926 51.9309 53.8926 51.6C53.8926 50.713 51.6961 51.41 51.6961 50.0653C51.6961 49.5091 52.1748 49.1008 53.0337 49.1008C53.4567 49.0916 53.8738 49.2014 54.2375 49.4176L54.0404 49.7837C53.7413 49.5888 53.3906 49.4882 53.0337 49.4951C52.4212 49.4951 52.1537 49.7274 52.1537 50.0512C52.1537 50.9735 54.3572 50.2765 54.3572 51.586C54.3572 52.1703 53.8362 52.5504 52.9492 52.5504C52.4565 52.5642 51.9725 52.4185 51.5693 52.1351Z" fill="#263238"/>
<path id="Vector_82" d="M60.1158 49.1008L58.8345 52.5011H58.405L57.3279 49.6851L56.2578 52.5011H55.8284L54.54 49.1008H54.9765L56.0466 51.9872L57.1378 49.1008H57.5321L58.6162 51.9872L59.6934 49.1008H60.1158Z" fill="#263238"/>
<path id="Vector_83" d="M60.3684 50.7975C60.3684 50.4549 60.47 50.1201 60.6603 49.8353C60.8506 49.5505 61.1211 49.3285 61.4375 49.1974C61.754 49.0664 62.1022 49.0321 62.4382 49.0989C62.7741 49.1657 63.0827 49.3307 63.3249 49.5729C63.5671 49.8151 63.7321 50.1236 63.7989 50.4596C63.8657 50.7955 63.8314 51.1438 63.7003 51.4602C63.5693 51.7767 63.3473 52.0472 63.0625 52.2375C62.7777 52.4278 62.4428 52.5293 62.1003 52.5293C61.8705 52.5382 61.6413 52.4995 61.4272 52.4157C61.213 52.3318 61.0185 52.2045 60.8559 52.0419C60.6933 51.8793 60.566 51.6848 60.4821 51.4706C60.3982 51.2565 60.3595 51.0273 60.3684 50.7975ZM63.3605 50.7975C63.3494 50.5492 63.2656 50.3097 63.1195 50.1087C62.9734 49.9078 62.7715 49.7541 62.5388 49.667C62.3061 49.5799 62.0529 49.5631 61.8107 49.6188C61.5686 49.6744 61.3481 49.8 61.1768 49.98C61.0054 50.1599 60.8908 50.3863 60.8471 50.6309C60.8033 50.8755 60.8325 51.1276 60.9309 51.3557C61.0293 51.5839 61.1927 51.7781 61.4006 51.9141C61.6085 52.0502 61.8518 52.1221 62.1003 52.121C62.2721 52.1243 62.4428 52.0919 62.6014 52.0257C62.76 51.9595 62.9032 51.8611 63.0217 51.7366C63.1402 51.6121 63.2315 51.4643 63.2899 51.3027C63.3482 51.141 63.3722 50.9689 63.3605 50.7975Z" fill="#263238"/>
<path id="Vector_84" d="M66.5076 49.0797V49.5232H66.395C66.2332 49.5154 66.0718 49.5433 65.9221 49.6052C65.7725 49.667 65.6383 49.7612 65.5293 49.881C65.4203 50.0007 65.3392 50.1431 65.2917 50.2979C65.2441 50.4527 65.2314 50.6161 65.2545 50.7764V52.5082H64.7969V49.1079H65.2334V49.7767C65.351 49.5458 65.5356 49.3558 65.7629 49.2315C65.9902 49.1072 66.2498 49.0543 66.5076 49.0797Z" fill="#263238"/>
<path id="Vector_85" d="M70.3655 47.7068V52.5011H69.929V51.7971C69.7912 52.0202 69.5968 52.2029 69.3656 52.3265C69.1344 52.4502 68.8745 52.5104 68.6125 52.5011C68.1551 52.5011 67.7164 52.3194 67.3929 51.9959C67.0694 51.6725 66.8877 51.2338 66.8877 50.7763C66.8877 50.3189 67.0694 49.8801 67.3929 49.5567C67.7164 49.2332 68.1551 49.0515 68.6125 49.0515C68.8708 49.0473 69.1257 49.11 69.3527 49.2333C69.5796 49.3566 69.7709 49.5365 69.9079 49.7555V47.7139L70.3655 47.7068ZM69.9149 50.7974C69.9039 50.5492 69.8201 50.3097 69.674 50.1087C69.5279 49.9077 69.3259 49.7541 69.0932 49.667C68.8605 49.5799 68.6073 49.5631 68.3652 49.6187C68.123 49.6744 67.9025 49.8 67.7312 49.98C67.5599 50.1599 67.4452 50.3863 67.4015 50.6309C67.3578 50.8755 67.387 51.1275 67.4854 51.3557C67.5838 51.5838 67.7471 51.778 67.955 51.9141C68.1629 52.0502 68.4063 52.1221 68.6547 52.121C68.8263 52.1232 68.9965 52.0901 69.1546 52.0235C69.3127 51.957 69.4554 51.8585 69.5737 51.7342C69.692 51.61 69.7834 51.4626 69.8421 51.3014C69.9008 51.1402 69.9256 50.9687 69.9149 50.7974Z" fill="#263238"/>
</g>
</g>
</svg>
