<svg width="34" height="68" viewBox="0 0 34 68" fill="none" xmlns="http://www.w3.org/2000/svg">
<g id="freepik--Plant--inject-15">
<path id="Vector" d="M13.0876 38.246C13.0876 38.246 8.7368 38.8232 6.87822 38.246C5.01964 37.6687 5.71661 29.2347 3.82283 29.0587C-0.54906 28.6574 0.197203 39.8581 2.05578 42.2166C3.91436 44.575 13.4818 43.5753 13.4818 43.5753L13.0876 38.246Z" fill="#50A9B0"/>
<path id="Vector_2" opacity="0.2" d="M13.0876 38.246C13.0876 38.246 8.7368 38.8232 6.87822 38.246C5.01964 37.6687 5.71661 29.2347 3.82283 29.0587C-0.54906 28.6574 0.197203 39.8581 2.05578 42.2166C3.91436 44.575 13.4818 43.5753 13.4818 43.5753L13.0876 38.246Z" fill="white"/>
<path id="Vector_3" d="M13.4465 58.106C13.4465 58.106 7.00487 0.912493 14.6926 0.257766C22.3804 -0.39696 24.239 19.7658 21.2681 57.3809L13.4465 58.106Z" fill="#50A9B0"/>
<path id="Vector_4" opacity="0.3" d="M13.4465 58.106C13.4465 58.106 7.00487 0.912493 14.6926 0.257766C22.3804 -0.39696 24.239 19.7658 21.2681 57.3809L13.4465 58.106Z" fill="white"/>
<path id="Vector_5" d="M4.41406 51.1857H29.7091L27.597 67.3637H6.52608L4.41406 51.1857Z" fill="#263238"/>
<path id="Vector_6" d="M21.0848 19.0055C21.0848 19.0055 28.1249 19.3786 28.3009 19.0055C28.4769 18.6324 28.5121 10.5574 31.483 11.015C34.4539 11.4726 33.1515 21.2372 31.483 22.3707C29.8145 23.5041 21.0848 24.1166 21.0848 24.1166C21.0848 24.1166 19.9162 20.5121 21.0848 19.0055Z" fill="#50A9B0"/>
<path id="Vector_7" opacity="0.4" d="M21.0848 19.0055C21.0848 19.0055 28.1249 19.3786 28.3009 19.0055C28.4769 18.6324 28.5121 10.5574 31.483 11.015C34.4539 11.4726 33.1515 21.2372 31.483 22.3707C29.8145 23.5041 21.0848 24.1166 21.0848 24.1166C21.0848 24.1166 19.9162 20.5121 21.0848 19.0055Z" fill="white"/>
<path id="Vector_8" d="M16.6429 52.8964C15.087 37.6405 13.3974 22.3072 13.7846 6.95282C13.8972 5.77713 13.9747 0.0183678 15.9318 0.898377C16.1829 1.10811 16.3747 1.37996 16.488 1.68686C17.0871 3.53902 17.4651 5.45546 17.6144 7.39635C19.0928 22.6874 18.9802 38.077 18.9027 53.4173C18.6141 38.0911 18.593 22.7155 17.0934 7.45971C16.8963 5.59409 15.7699 -2.5935 14.6224 3.73553C14.2446 6.98758 14.1057 10.2629 14.207 13.5353C14.4675 26.6791 15.5305 39.7948 16.6429 52.8964Z" fill="#50A9B0"/>
<path id="Vector_9" d="M21.9655 20.9275C24.0212 20.7304 27.682 20.6036 29.442 20.146C29.442 17.7313 30.2939 14.4506 31.1598 11.881C30.9134 13.0285 30.674 14.697 30.4558 15.9009C30.1771 17.3505 30.0077 18.8189 29.9489 20.2939C29.8363 20.6388 29.4068 20.7022 29.1322 20.7726C26.7498 21.0952 24.3385 21.1471 21.9443 20.9275H21.9655Z" fill="#50A9B0"/>
<path id="Vector_10" d="M21.9648 22.793C24.9006 22.251 28.1742 22.0398 31.0536 21.3498C31.7998 20.1671 31.7576 18.4986 31.9688 17.1258C32.1377 15.5911 32.2645 14.0493 32.4123 12.5075C32.4933 14.0576 32.4933 15.6109 32.4123 17.161C32.3856 18.5444 32.1725 19.9178 31.7787 21.2442C31.6972 21.4951 31.5303 21.7093 31.307 21.8497C28.236 22.4527 25.1155 22.7685 21.986 22.793H21.9648Z" fill="#50A9B0"/>
<path id="Vector_11" d="M10.9195 39.8089C8.89196 39.8511 6.794 39.9497 4.82982 39.2738C4.34498 38.8476 4.03836 38.2544 3.97093 37.6124C3.71901 36.3323 3.5917 35.0308 3.59079 33.7262C3.56139 32.4317 3.60605 31.1366 3.72455 29.8472C3.82311 31.1355 3.90055 32.4238 4.01319 33.7051C4.098 34.9767 4.26258 36.2417 4.50599 37.4927C4.65383 38.07 4.79464 38.7951 5.26633 38.9007C7.11492 39.3634 8.99875 39.6719 10.8984 39.8229L10.9195 39.8089Z" fill="#50A9B0"/>
<path id="Vector_12" d="M2.42916 30.868L2.88676 35.3667C3.16837 37.3308 3.11909 39.471 3.90054 41.2874C4.02363 41.3801 4.15858 41.4558 4.3018 41.5126C6.41383 42.2166 8.71595 42.2659 10.9195 42.5264C9.40799 42.6049 7.89278 42.5744 6.38568 42.4349C5.34375 42.2589 3.56965 42.2941 3.2106 41.0269C2.33763 37.711 2.38692 34.2403 2.42916 30.8399V30.868Z" fill="#50A9B0"/>
</g>
</svg>


